<mxfile host="app.diagrams.net" agent="Mozilla/5.0 (Windows NT 10.0; Win64; x64) AppleWebKit/537.36 (KHTML, like Gecko) Chrome/138.0.0.0 Safari/537.36 Edg/138.0.0.0" version="27.2.0">
  <diagram name="第 1 页" id="53WiEm2vT8FHzI7acW-v">
    <mxGraphModel dx="778" dy="506" grid="1" gridSize="10" guides="1" tooltips="1" connect="1" arrows="1" fold="1" page="1" pageScale="1" pageWidth="827" pageHeight="1169" math="0" shadow="0">
      <root>
        <mxCell id="0" />
        <mxCell id="1" parent="0" />
        <mxCell id="_NaJRBJx3cUUijE6ddpo-1" value="&lt;b&gt;&lt;font style=&quot;font-size: 24px; color: rgb(255, 0, 0);&quot;&gt;Instance&lt;/font&gt;&lt;/b&gt;" style="rounded=0;whiteSpace=wrap;html=1;" vertex="1" parent="1">
          <mxGeometry x="53" y="212" width="120" height="60" as="geometry" />
        </mxCell>
        <mxCell id="_NaJRBJx3cUUijE6ddpo-2" value="&lt;b&gt;&lt;font style=&quot;font-size: 18px;&quot;&gt;&amp;nbsp; Validation Layer&lt;/font&gt;&lt;/b&gt;" style="rounded=0;whiteSpace=wrap;html=1;align=left;" vertex="1" parent="1">
          <mxGeometry x="33" y="22" width="430" height="60" as="geometry" />
        </mxCell>
        <mxCell id="_NaJRBJx3cUUijE6ddpo-3" value="&lt;font style=&quot;font-size: 16px;&quot;&gt;VK_LAYER_KHRONOS_validation&lt;/font&gt;" style="rounded=0;whiteSpace=wrap;html=1;" vertex="1" parent="1">
          <mxGeometry x="193" y="32" width="260" height="40" as="geometry" />
        </mxCell>
        <mxCell id="_NaJRBJx3cUUijE6ddpo-4" value="&lt;font style=&quot;font-size: 16px;&quot;&gt;配置&lt;/font&gt;" style="endArrow=classic;html=1;rounded=0;exitX=0.25;exitY=0;exitDx=0;exitDy=0;entryX=0.114;entryY=0.996;entryDx=0;entryDy=0;entryPerimeter=0;" edge="1" parent="1" source="_NaJRBJx3cUUijE6ddpo-1" target="_NaJRBJx3cUUijE6ddpo-2">
          <mxGeometry width="50" height="50" relative="1" as="geometry">
            <mxPoint x="243" y="412" as="sourcePoint" />
            <mxPoint x="113" y="162" as="targetPoint" />
            <Array as="points" />
          </mxGeometry>
        </mxCell>
        <mxCell id="_NaJRBJx3cUUijE6ddpo-5" value="&lt;font style=&quot;font-size: 16px;&quot;&gt;VK_EXT_debug_utils&lt;/font&gt;" style="rounded=1;whiteSpace=wrap;html=1;" vertex="1" parent="1">
          <mxGeometry x="583" y="32" width="170" height="40" as="geometry" />
        </mxCell>
        <mxCell id="_NaJRBJx3cUUijE6ddpo-6" value="&lt;font style=&quot;font-size: 16px;&quot;&gt;拓展名字&lt;/font&gt;" style="endArrow=none;html=1;rounded=0;entryX=0;entryY=0.5;entryDx=0;entryDy=0;exitX=1;exitY=0.5;exitDx=0;exitDy=0;" edge="1" parent="1" source="_NaJRBJx3cUUijE6ddpo-2" target="_NaJRBJx3cUUijE6ddpo-5">
          <mxGeometry width="50" height="50" relative="1" as="geometry">
            <mxPoint x="443" y="322" as="sourcePoint" />
            <mxPoint x="493" y="272" as="targetPoint" />
          </mxGeometry>
        </mxCell>
        <mxCell id="_NaJRBJx3cUUijE6ddpo-7" value="&lt;font style=&quot;font-size: 18px;&quot;&gt;&lt;b&gt;&amp;nbsp; Physical Devices&lt;/b&gt;&lt;/font&gt;" style="rounded=0;whiteSpace=wrap;html=1;align=left;" vertex="1" parent="1">
          <mxGeometry x="263" y="212" width="450" height="60" as="geometry" />
        </mxCell>
        <mxCell id="_NaJRBJx3cUUijE6ddpo-8" value="&lt;font style=&quot;font-size: 16px;&quot;&gt;枚举选择&lt;/font&gt;" style="endArrow=classic;html=1;rounded=0;exitX=1;exitY=0.5;exitDx=0;exitDy=0;entryX=0;entryY=0.5;entryDx=0;entryDy=0;" edge="1" parent="1" source="_NaJRBJx3cUUijE6ddpo-1" target="_NaJRBJx3cUUijE6ddpo-7">
          <mxGeometry width="50" height="50" relative="1" as="geometry">
            <mxPoint x="433" y="472" as="sourcePoint" />
            <mxPoint x="483" y="422" as="targetPoint" />
            <mxPoint as="offset" />
          </mxGeometry>
        </mxCell>
        <mxCell id="_NaJRBJx3cUUijE6ddpo-9" value="&lt;font style=&quot;font-size: 16px;&quot;&gt;P_Device1&lt;/font&gt;" style="rounded=0;whiteSpace=wrap;html=1;" vertex="1" parent="1">
          <mxGeometry x="433" y="222" width="90" height="40" as="geometry" />
        </mxCell>
        <mxCell id="_NaJRBJx3cUUijE6ddpo-10" value="&lt;font style=&quot;font-size: 16px;&quot;&gt;P_Device2&lt;/font&gt;" style="rounded=0;whiteSpace=wrap;html=1;" vertex="1" parent="1">
          <mxGeometry x="523" y="222" width="90" height="40" as="geometry" />
        </mxCell>
        <mxCell id="_NaJRBJx3cUUijE6ddpo-11" value="&lt;font style=&quot;font-size: 16px;&quot;&gt;P_Device3&lt;/font&gt;" style="rounded=0;whiteSpace=wrap;html=1;" vertex="1" parent="1">
          <mxGeometry x="613" y="222" width="90" height="40" as="geometry" />
        </mxCell>
        <mxCell id="_NaJRBJx3cUUijE6ddpo-12" value="&lt;font style=&quot;font-size: 18px; color: light-dark(rgb(0, 0, 255), rgb(237, 237, 237));&quot;&gt;&lt;b style=&quot;&quot;&gt;&amp;nbsp; Logical Devices&lt;/b&gt;&lt;/font&gt;" style="rounded=0;whiteSpace=wrap;html=1;align=left;" vertex="1" parent="1">
          <mxGeometry x="263" y="342" width="450" height="60" as="geometry" />
        </mxCell>
        <mxCell id="_NaJRBJx3cUUijE6ddpo-13" value="&lt;font style=&quot;font-size: 16px;&quot;&gt;L_Device1&lt;/font&gt;" style="rounded=0;whiteSpace=wrap;html=1;" vertex="1" parent="1">
          <mxGeometry x="433" y="352" width="90" height="40" as="geometry" />
        </mxCell>
        <mxCell id="_NaJRBJx3cUUijE6ddpo-14" value="&lt;font style=&quot;font-size: 16px;&quot;&gt;L_Device2&lt;/font&gt;" style="rounded=0;whiteSpace=wrap;html=1;" vertex="1" parent="1">
          <mxGeometry x="523" y="352" width="90" height="40" as="geometry" />
        </mxCell>
        <mxCell id="_NaJRBJx3cUUijE6ddpo-15" value="&lt;font style=&quot;font-size: 16px;&quot;&gt;L_Device3&lt;/font&gt;" style="rounded=0;whiteSpace=wrap;html=1;" vertex="1" parent="1">
          <mxGeometry x="613" y="352" width="90" height="40" as="geometry" />
        </mxCell>
        <mxCell id="_NaJRBJx3cUUijE6ddpo-16" value="" style="endArrow=classic;html=1;rounded=0;exitX=0.5;exitY=1;exitDx=0;exitDy=0;entryX=0.5;entryY=0;entryDx=0;entryDy=0;" edge="1" parent="1" source="_NaJRBJx3cUUijE6ddpo-9" target="_NaJRBJx3cUUijE6ddpo-13">
          <mxGeometry width="50" height="50" relative="1" as="geometry">
            <mxPoint x="463" y="582" as="sourcePoint" />
            <mxPoint x="513" y="532" as="targetPoint" />
          </mxGeometry>
        </mxCell>
        <mxCell id="_NaJRBJx3cUUijE6ddpo-17" value="" style="endArrow=classic;html=1;rounded=0;exitX=0.5;exitY=1;exitDx=0;exitDy=0;entryX=0.5;entryY=0;entryDx=0;entryDy=0;" edge="1" parent="1" source="_NaJRBJx3cUUijE6ddpo-10" target="_NaJRBJx3cUUijE6ddpo-14">
          <mxGeometry width="50" height="50" relative="1" as="geometry">
            <mxPoint x="523" y="322" as="sourcePoint" />
            <mxPoint x="523" y="412" as="targetPoint" />
          </mxGeometry>
        </mxCell>
        <mxCell id="_NaJRBJx3cUUijE6ddpo-18" value="" style="endArrow=classic;html=1;rounded=0;exitX=0.5;exitY=1;exitDx=0;exitDy=0;entryX=0.5;entryY=0;entryDx=0;entryDy=0;" edge="1" parent="1" source="_NaJRBJx3cUUijE6ddpo-11" target="_NaJRBJx3cUUijE6ddpo-15">
          <mxGeometry width="50" height="50" relative="1" as="geometry">
            <mxPoint x="633" y="322" as="sourcePoint" />
            <mxPoint x="633" y="412" as="targetPoint" />
          </mxGeometry>
        </mxCell>
        <mxCell id="_NaJRBJx3cUUijE6ddpo-19" value="&lt;font style=&quot;font-size: 14px;&quot;&gt;并非一一对应，可以交错对应&lt;/font&gt;" style="endArrow=none;html=1;rounded=0;" edge="1" parent="1">
          <mxGeometry width="50" height="50" relative="1" as="geometry">
            <mxPoint x="443" y="302" as="sourcePoint" />
            <mxPoint x="693" y="302" as="targetPoint" />
          </mxGeometry>
        </mxCell>
        <mxCell id="_NaJRBJx3cUUijE6ddpo-20" value="&lt;font style=&quot;font-size: 16px;&quot;&gt;创建&lt;/font&gt;" style="endArrow=classic;html=1;rounded=0;exitX=0.133;exitY=1.017;exitDx=0;exitDy=0;exitPerimeter=0;" edge="1" parent="1" source="_NaJRBJx3cUUijE6ddpo-7">
          <mxGeometry width="50" height="50" relative="1" as="geometry">
            <mxPoint x="473" y="522" as="sourcePoint" />
            <mxPoint x="323" y="342" as="targetPoint" />
          </mxGeometry>
        </mxCell>
        <mxCell id="_NaJRBJx3cUUijE6ddpo-21" value="&lt;font style=&quot;font-size: 18px;&quot;&gt;&lt;b&gt;&amp;nbsp; Queue Families&lt;/b&gt;&lt;/font&gt;" style="rounded=0;whiteSpace=wrap;html=1;align=left;" vertex="1" parent="1">
          <mxGeometry x="853" y="212" width="430" height="60" as="geometry" />
        </mxCell>
        <mxCell id="_NaJRBJx3cUUijE6ddpo-22" value="&lt;font style=&quot;font-size: 16px;&quot;&gt;graphicsFamily&lt;/font&gt;" style="rounded=0;whiteSpace=wrap;html=1;" vertex="1" parent="1">
          <mxGeometry x="1033" y="222" width="120" height="40" as="geometry" />
        </mxCell>
        <mxCell id="_NaJRBJx3cUUijE6ddpo-23" value="&lt;font style=&quot;font-size: 16px;&quot;&gt;presentFamily&lt;/font&gt;" style="rounded=0;whiteSpace=wrap;html=1;" vertex="1" parent="1">
          <mxGeometry x="1153" y="222" width="120" height="40" as="geometry" />
        </mxCell>
        <mxCell id="_NaJRBJx3cUUijE6ddpo-24" value="" style="endArrow=classic;html=1;rounded=0;exitX=1;exitY=0.5;exitDx=0;exitDy=0;entryX=0;entryY=0.5;entryDx=0;entryDy=0;" edge="1" parent="1" source="_NaJRBJx3cUUijE6ddpo-41" target="_NaJRBJx3cUUijE6ddpo-21">
          <mxGeometry width="50" height="50" relative="1" as="geometry">
            <mxPoint x="733" y="562" as="sourcePoint" />
            <mxPoint x="783" y="512" as="targetPoint" />
          </mxGeometry>
        </mxCell>
        <mxCell id="_NaJRBJx3cUUijE6ddpo-25" value="&lt;font style=&quot;font-size: 18px;&quot;&gt;&lt;b&gt;&amp;nbsp; Queues&lt;/b&gt;&lt;/font&gt;" style="rounded=0;whiteSpace=wrap;html=1;align=left;" vertex="1" parent="1">
          <mxGeometry x="853" y="342" width="430" height="60" as="geometry" />
        </mxCell>
        <mxCell id="_NaJRBJx3cUUijE6ddpo-26" value="&lt;font style=&quot;font-size: 16px;&quot;&gt;创建&lt;/font&gt;" style="endArrow=classic;html=1;rounded=0;exitX=1;exitY=0.5;exitDx=0;exitDy=0;entryX=0;entryY=0.5;entryDx=0;entryDy=0;" edge="1" parent="1" source="_NaJRBJx3cUUijE6ddpo-12" target="_NaJRBJx3cUUijE6ddpo-25">
          <mxGeometry width="50" height="50" relative="1" as="geometry">
            <mxPoint x="923" y="562" as="sourcePoint" />
            <mxPoint x="973" y="512" as="targetPoint" />
          </mxGeometry>
        </mxCell>
        <mxCell id="_NaJRBJx3cUUijE6ddpo-27" value="&lt;font style=&quot;font-size: 16px;&quot;&gt;graphicsQueue&lt;/font&gt;" style="rounded=0;whiteSpace=wrap;html=1;" vertex="1" parent="1">
          <mxGeometry x="1033" y="352" width="120" height="40" as="geometry" />
        </mxCell>
        <mxCell id="_NaJRBJx3cUUijE6ddpo-28" value="&lt;font style=&quot;font-size: 16px;&quot;&gt;presentQueue&lt;/font&gt;" style="rounded=0;whiteSpace=wrap;html=1;" vertex="1" parent="1">
          <mxGeometry x="1153" y="352" width="120" height="40" as="geometry" />
        </mxCell>
        <mxCell id="_NaJRBJx3cUUijE6ddpo-29" value="&lt;font style=&quot;font-size: 16px;&quot;&gt;对应&lt;/font&gt;" style="endArrow=classic;html=1;rounded=0;exitX=0.5;exitY=1;exitDx=0;exitDy=0;entryX=0.5;entryY=0;entryDx=0;entryDy=0;" edge="1" parent="1" source="_NaJRBJx3cUUijE6ddpo-22" target="_NaJRBJx3cUUijE6ddpo-27">
          <mxGeometry width="50" height="50" relative="1" as="geometry">
            <mxPoint x="1003" y="542" as="sourcePoint" />
            <mxPoint x="1053" y="492" as="targetPoint" />
          </mxGeometry>
        </mxCell>
        <mxCell id="_NaJRBJx3cUUijE6ddpo-30" value="&lt;font style=&quot;font-size: 16px;&quot;&gt;对应&lt;/font&gt;" style="endArrow=classic;html=1;rounded=0;exitX=0.5;exitY=1;exitDx=0;exitDy=0;entryX=0.5;entryY=0;entryDx=0;entryDy=0;" edge="1" parent="1" source="_NaJRBJx3cUUijE6ddpo-23" target="_NaJRBJx3cUUijE6ddpo-28">
          <mxGeometry width="50" height="50" relative="1" as="geometry">
            <mxPoint x="1123" y="302" as="sourcePoint" />
            <mxPoint x="1123" y="392" as="targetPoint" />
          </mxGeometry>
        </mxCell>
        <mxCell id="_NaJRBJx3cUUijE6ddpo-31" value="&lt;font style=&quot;font-size: 18px;&quot;&gt;&lt;b&gt;&amp;nbsp; SwapChain&lt;/b&gt;&lt;/font&gt;" style="rounded=0;whiteSpace=wrap;html=1;align=left;" vertex="1" parent="1">
          <mxGeometry x="853" y="442" width="430" height="180" as="geometry" />
        </mxCell>
        <mxCell id="_NaJRBJx3cUUijE6ddpo-32" value="&lt;font style=&quot;font-size: 16px;&quot;&gt;Image1&lt;/font&gt;" style="rounded=0;whiteSpace=wrap;html=1;" vertex="1" parent="1">
          <mxGeometry x="1003" y="452" width="90" height="40" as="geometry" />
        </mxCell>
        <mxCell id="_NaJRBJx3cUUijE6ddpo-33" value="&lt;font style=&quot;font-size: 16px;&quot;&gt;Image2&lt;/font&gt;" style="rounded=0;whiteSpace=wrap;html=1;" vertex="1" parent="1">
          <mxGeometry x="1093" y="452" width="90" height="40" as="geometry" />
        </mxCell>
        <mxCell id="_NaJRBJx3cUUijE6ddpo-34" value="&lt;font style=&quot;font-size: 16px;&quot;&gt;Image3&lt;/font&gt;" style="rounded=0;whiteSpace=wrap;html=1;" vertex="1" parent="1">
          <mxGeometry x="1183" y="452" width="90" height="40" as="geometry" />
        </mxCell>
        <mxCell id="_NaJRBJx3cUUijE6ddpo-35" value="&lt;font style=&quot;font-size: 18px;&quot;&gt;&lt;b&gt;WindowSurface&lt;/b&gt;&lt;/font&gt;" style="rounded=0;whiteSpace=wrap;html=1;" vertex="1" parent="1">
          <mxGeometry x="563" y="102" width="150" height="60" as="geometry" />
        </mxCell>
        <mxCell id="_NaJRBJx3cUUijE6ddpo-36" value="&lt;font style=&quot;font-size: 16px;&quot;&gt;GLFW创建&lt;/font&gt;" style="endArrow=classic;html=1;rounded=0;entryX=0;entryY=0.5;entryDx=0;entryDy=0;exitX=0.5;exitY=0;exitDx=0;exitDy=0;" edge="1" parent="1" source="_NaJRBJx3cUUijE6ddpo-1" target="_NaJRBJx3cUUijE6ddpo-35">
          <mxGeometry width="50" height="50" relative="1" as="geometry">
            <mxPoint x="373" y="242" as="sourcePoint" />
            <mxPoint x="423" y="192" as="targetPoint" />
            <Array as="points">
              <mxPoint x="113" y="132" />
            </Array>
          </mxGeometry>
        </mxCell>
        <mxCell id="_NaJRBJx3cUUijE6ddpo-37" value="" style="curved=1;endArrow=classic;html=1;rounded=0;entryX=0;entryY=0.5;entryDx=0;entryDy=0;" edge="1" parent="1" target="_NaJRBJx3cUUijE6ddpo-31">
          <mxGeometry width="50" height="50" relative="1" as="geometry">
            <mxPoint x="783" y="242" as="sourcePoint" />
            <mxPoint x="773" y="402" as="targetPoint" />
            <Array as="points">
              <mxPoint x="703" y="452" />
            </Array>
          </mxGeometry>
        </mxCell>
        <mxCell id="_NaJRBJx3cUUijE6ddpo-38" value="" style="endArrow=classic;html=1;rounded=0;exitX=1;exitY=0.5;exitDx=0;exitDy=0;entryX=0.5;entryY=0;entryDx=0;entryDy=0;" edge="1" parent="1" source="_NaJRBJx3cUUijE6ddpo-35" target="_NaJRBJx3cUUijE6ddpo-41">
          <mxGeometry width="50" height="50" relative="1" as="geometry">
            <mxPoint x="743" y="362" as="sourcePoint" />
            <mxPoint x="793" y="312" as="targetPoint" />
            <Array as="points">
              <mxPoint x="783" y="132" />
            </Array>
          </mxGeometry>
        </mxCell>
        <mxCell id="_NaJRBJx3cUUijE6ddpo-39" value="&lt;font style=&quot;font-size: 16px;&quot;&gt;共同筛选&lt;/font&gt;" style="edgeLabel;html=1;align=center;verticalAlign=middle;resizable=0;points=[];" vertex="1" connectable="0" parent="_NaJRBJx3cUUijE6ddpo-38">
          <mxGeometry x="0.7212" relative="1" as="geometry">
            <mxPoint as="offset" />
          </mxGeometry>
        </mxCell>
        <mxCell id="_NaJRBJx3cUUijE6ddpo-40" value="" style="endArrow=classic;html=1;rounded=0;exitX=1;exitY=0.5;exitDx=0;exitDy=0;entryX=0;entryY=0.5;entryDx=0;entryDy=0;" edge="1" parent="1" source="_NaJRBJx3cUUijE6ddpo-7" target="_NaJRBJx3cUUijE6ddpo-41">
          <mxGeometry width="50" height="50" relative="1" as="geometry">
            <mxPoint x="713" y="242" as="sourcePoint" />
            <mxPoint x="853" y="242" as="targetPoint" />
          </mxGeometry>
        </mxCell>
        <mxCell id="_NaJRBJx3cUUijE6ddpo-41" value="&lt;b&gt;&lt;font style=&quot;font-size: 18px;&quot;&gt;&amp;amp;&lt;/font&gt;&lt;/b&gt;" style="ellipse;whiteSpace=wrap;html=1;aspect=fixed;" vertex="1" parent="1">
          <mxGeometry x="768" y="227" width="30" height="30" as="geometry" />
        </mxCell>
        <mxCell id="_NaJRBJx3cUUijE6ddpo-42" value="&lt;font style=&quot;font-size: 16px;&quot;&gt;创建&lt;/font&gt;" style="endArrow=classic;html=1;rounded=0;exitX=0.75;exitY=1;exitDx=0;exitDy=0;entryX=0;entryY=0.5;entryDx=0;entryDy=0;" edge="1" parent="1" source="_NaJRBJx3cUUijE6ddpo-12" target="_NaJRBJx3cUUijE6ddpo-31">
          <mxGeometry width="50" height="50" relative="1" as="geometry">
            <mxPoint x="703" y="452" as="sourcePoint" />
            <mxPoint x="753" y="402" as="targetPoint" />
            <Array as="points">
              <mxPoint x="601" y="532" />
            </Array>
          </mxGeometry>
        </mxCell>
        <mxCell id="_NaJRBJx3cUUijE6ddpo-43" value="&lt;font style=&quot;font-size: 16px;&quot;&gt;Image&lt;br&gt;View1&lt;/font&gt;" style="rounded=0;whiteSpace=wrap;html=1;" vertex="1" parent="1">
          <mxGeometry x="1003" y="562" width="90" height="40" as="geometry" />
        </mxCell>
        <mxCell id="_NaJRBJx3cUUijE6ddpo-44" value="&lt;font style=&quot;font-size: 16px;&quot;&gt;Image&lt;br&gt;View2&lt;/font&gt;" style="rounded=0;whiteSpace=wrap;html=1;" vertex="1" parent="1">
          <mxGeometry x="1093" y="562" width="90" height="40" as="geometry" />
        </mxCell>
        <mxCell id="_NaJRBJx3cUUijE6ddpo-45" value="&lt;font style=&quot;font-size: 16px;&quot;&gt;Image&lt;br&gt;View3&lt;/font&gt;" style="rounded=0;whiteSpace=wrap;html=1;" vertex="1" parent="1">
          <mxGeometry x="1183" y="562" width="90" height="40" as="geometry" />
        </mxCell>
        <mxCell id="_NaJRBJx3cUUijE6ddpo-46" value="&lt;font style=&quot;font-size: 16px;&quot;&gt;创建&lt;/font&gt;" style="endArrow=classic;html=1;rounded=0;exitX=0.75;exitY=1;exitDx=0;exitDy=0;entryX=0;entryY=0.5;entryDx=0;entryDy=0;" edge="1" parent="1" source="_NaJRBJx3cUUijE6ddpo-12" target="_NaJRBJx3cUUijE6ddpo-43">
          <mxGeometry width="50" height="50" relative="1" as="geometry">
            <mxPoint x="763" y="622" as="sourcePoint" />
            <mxPoint x="813" y="572" as="targetPoint" />
            <Array as="points">
              <mxPoint x="601" y="582" />
            </Array>
          </mxGeometry>
        </mxCell>
        <mxCell id="_NaJRBJx3cUUijE6ddpo-47" value="&lt;font style=&quot;font-size: 16px;&quot;&gt;对应&lt;/font&gt;" style="endArrow=classic;html=1;rounded=0;exitX=0.5;exitY=1;exitDx=0;exitDy=0;entryX=0.5;entryY=0;entryDx=0;entryDy=0;" edge="1" parent="1" source="_NaJRBJx3cUUijE6ddpo-32" target="_NaJRBJx3cUUijE6ddpo-43">
          <mxGeometry width="50" height="50" relative="1" as="geometry">
            <mxPoint x="1033" y="622" as="sourcePoint" />
            <mxPoint x="1083" y="572" as="targetPoint" />
          </mxGeometry>
        </mxCell>
        <mxCell id="_NaJRBJx3cUUijE6ddpo-48" value="&lt;font style=&quot;font-size: 16px;&quot;&gt;对应&lt;/font&gt;" style="endArrow=classic;html=1;rounded=0;exitX=0.5;exitY=1;exitDx=0;exitDy=0;entryX=0.5;entryY=0;entryDx=0;entryDy=0;" edge="1" parent="1" source="_NaJRBJx3cUUijE6ddpo-33" target="_NaJRBJx3cUUijE6ddpo-44">
          <mxGeometry width="50" height="50" relative="1" as="geometry">
            <mxPoint x="1073" y="502" as="sourcePoint" />
            <mxPoint x="1073" y="572" as="targetPoint" />
          </mxGeometry>
        </mxCell>
        <mxCell id="_NaJRBJx3cUUijE6ddpo-49" value="&lt;font style=&quot;font-size: 16px;&quot;&gt;对应&lt;/font&gt;" style="endArrow=classic;html=1;rounded=0;exitX=0.5;exitY=1;exitDx=0;exitDy=0;entryX=0.5;entryY=0;entryDx=0;entryDy=0;" edge="1" parent="1" source="_NaJRBJx3cUUijE6ddpo-34" target="_NaJRBJx3cUUijE6ddpo-45">
          <mxGeometry x="-0.4286" width="50" height="50" relative="1" as="geometry">
            <mxPoint x="1143" y="502" as="sourcePoint" />
            <mxPoint x="1143" y="572" as="targetPoint" />
            <mxPoint as="offset" />
          </mxGeometry>
        </mxCell>
        <mxCell id="_NaJRBJx3cUUijE6ddpo-50" value="&lt;b&gt;&lt;font style=&quot;font-size: 24px; color: rgb(0, 0, 0);&quot;&gt;Pipeline&lt;/font&gt;&lt;/b&gt;" style="rounded=0;whiteSpace=wrap;html=1;" vertex="1" parent="1">
          <mxGeometry x="53" y="682" width="120" height="60" as="geometry" />
        </mxCell>
        <mxCell id="_NaJRBJx3cUUijE6ddpo-51" value="&lt;font style=&quot;font-size: 16px;&quot;&gt;创建&lt;/font&gt;" style="endArrow=classic;html=1;rounded=0;exitX=0;exitY=0.5;exitDx=0;exitDy=0;entryX=0.5;entryY=0;entryDx=0;entryDy=0;" edge="1" parent="1" source="_NaJRBJx3cUUijE6ddpo-12" target="_NaJRBJx3cUUijE6ddpo-50">
          <mxGeometry width="50" height="50" relative="1" as="geometry">
            <mxPoint x="343" y="662" as="sourcePoint" />
            <mxPoint x="393" y="612" as="targetPoint" />
            <Array as="points">
              <mxPoint x="113" y="372" />
            </Array>
          </mxGeometry>
        </mxCell>
        <mxCell id="_NaJRBJx3cUUijE6ddpo-52" value="&lt;font style=&quot;font-size: 24px;&quot;&gt;&lt;b&gt;Shader&amp;nbsp;&lt;br&gt;Module&lt;/b&gt;&lt;/font&gt;" style="rounded=0;whiteSpace=wrap;html=1;" vertex="1" parent="1">
          <mxGeometry x="463" y="682" width="120" height="60" as="geometry" />
        </mxCell>
        <mxCell id="_NaJRBJx3cUUijE6ddpo-53" value="&lt;font style=&quot;font-size: 16px;&quot;&gt;PipelineShaderStageCreate&lt;/font&gt;" style="endArrow=classic;html=1;rounded=0;exitX=0;exitY=0.5;exitDx=0;exitDy=0;entryX=1;entryY=0.5;entryDx=0;entryDy=0;" edge="1" parent="1" source="_NaJRBJx3cUUijE6ddpo-52" target="_NaJRBJx3cUUijE6ddpo-50">
          <mxGeometry width="50" height="50" relative="1" as="geometry">
            <mxPoint x="343" y="652" as="sourcePoint" />
            <mxPoint x="393" y="602" as="targetPoint" />
          </mxGeometry>
        </mxCell>
        <mxCell id="_NaJRBJx3cUUijE6ddpo-54" value="&lt;font style=&quot;font-size: 20px;&quot;&gt;&lt;b style=&quot;&quot;&gt;&amp;nbsp; Fixed Function&lt;/b&gt;&lt;/font&gt;" style="rounded=0;whiteSpace=wrap;html=1;align=left;" vertex="1" parent="1">
          <mxGeometry x="173" y="972" width="570" height="120" as="geometry" />
        </mxCell>
        <mxCell id="_NaJRBJx3cUUijE6ddpo-55" value="&lt;b&gt;&lt;font style=&quot;font-size: 20px;&quot;&gt;&amp;nbsp; Render Pass&lt;/font&gt;&lt;/b&gt;" style="rounded=0;whiteSpace=wrap;html=1;align=left;" vertex="1" parent="1">
          <mxGeometry x="173" y="772" width="570" height="180" as="geometry" />
        </mxCell>
        <mxCell id="_NaJRBJx3cUUijE6ddpo-56" value="" style="endArrow=none;html=1;rounded=0;exitX=0.5;exitY=1;exitDx=0;exitDy=0;entryX=0;entryY=0.5;entryDx=0;entryDy=0;" edge="1" parent="1" source="_NaJRBJx3cUUijE6ddpo-50" target="_NaJRBJx3cUUijE6ddpo-55">
          <mxGeometry width="50" height="50" relative="1" as="geometry">
            <mxPoint x="333" y="742" as="sourcePoint" />
            <mxPoint x="113" y="1002" as="targetPoint" />
            <Array as="points">
              <mxPoint x="113" y="862" />
            </Array>
          </mxGeometry>
        </mxCell>
        <mxCell id="_NaJRBJx3cUUijE6ddpo-57" value="&lt;font style=&quot;font-size: 16px;&quot;&gt;包括&lt;/font&gt;" style="endArrow=none;html=1;rounded=0;exitX=0.5;exitY=1;exitDx=0;exitDy=0;entryX=0;entryY=0.5;entryDx=0;entryDy=0;" edge="1" parent="1" source="_NaJRBJx3cUUijE6ddpo-50" target="_NaJRBJx3cUUijE6ddpo-54">
          <mxGeometry x="-0.5556" width="50" height="50" relative="1" as="geometry">
            <mxPoint x="333" y="742" as="sourcePoint" />
            <mxPoint x="383" y="692" as="targetPoint" />
            <Array as="points">
              <mxPoint x="113" y="1032" />
            </Array>
            <mxPoint as="offset" />
          </mxGeometry>
        </mxCell>
        <mxCell id="_NaJRBJx3cUUijE6ddpo-58" value="&lt;font style=&quot;font-size: 16px;&quot;&gt;Vertex&lt;br&gt;Input&lt;/font&gt;" style="rounded=0;whiteSpace=wrap;html=1;" vertex="1" parent="1">
          <mxGeometry x="334" y="1032" width="80" height="50" as="geometry" />
        </mxCell>
        <mxCell id="_NaJRBJx3cUUijE6ddpo-59" value="&lt;font style=&quot;font-size: 16px;&quot;&gt;Pipeline&lt;br&gt;Layout&lt;/font&gt;" style="rounded=0;whiteSpace=wrap;html=1;" vertex="1" parent="1">
          <mxGeometry x="413" y="1032" width="80" height="50" as="geometry" />
        </mxCell>
        <mxCell id="_NaJRBJx3cUUijE6ddpo-60" value="&lt;font style=&quot;font-size: 16px;&quot;&gt;Input&lt;br&gt;Assembly&lt;/font&gt;" style="rounded=0;whiteSpace=wrap;html=1;" vertex="1" parent="1">
          <mxGeometry x="493" y="1032" width="80" height="50" as="geometry" />
        </mxCell>
        <mxCell id="_NaJRBJx3cUUijE6ddpo-61" value="&lt;font style=&quot;font-size: 16px;&quot;&gt;Viewports&amp;amp;Scissors&lt;br&gt;Or Dynamic State&lt;/font&gt;" style="rounded=0;whiteSpace=wrap;html=1;" vertex="1" parent="1">
          <mxGeometry x="334" y="982" width="160" height="50" as="geometry" />
        </mxCell>
        <mxCell id="_NaJRBJx3cUUijE6ddpo-62" value="&lt;font style=&quot;font-size: 16px;&quot;&gt;Rasterizer&lt;/font&gt;" style="rounded=0;whiteSpace=wrap;html=1;" vertex="1" parent="1">
          <mxGeometry x="573" y="1032" width="80" height="50" as="geometry" />
        </mxCell>
        <mxCell id="_NaJRBJx3cUUijE6ddpo-63" value="&lt;font style=&quot;font-size: 16px;&quot;&gt;Multi&lt;br&gt;sampling&lt;/font&gt;" style="rounded=0;whiteSpace=wrap;html=1;" vertex="1" parent="1">
          <mxGeometry x="653" y="1032" width="80" height="50" as="geometry" />
        </mxCell>
        <mxCell id="_NaJRBJx3cUUijE6ddpo-64" value="&lt;font style=&quot;font-size: 16px;&quot;&gt;Depth and &lt;br&gt;Stencil testing&lt;/font&gt;" style="rounded=0;whiteSpace=wrap;html=1;" vertex="1" parent="1">
          <mxGeometry x="493" y="982" width="160" height="50" as="geometry" />
        </mxCell>
        <mxCell id="_NaJRBJx3cUUijE6ddpo-65" value="&lt;font style=&quot;font-size: 16px;&quot;&gt;Color&lt;br&gt;Blending&lt;/font&gt;" style="rounded=0;whiteSpace=wrap;html=1;" vertex="1" parent="1">
          <mxGeometry x="653" y="982" width="80" height="50" as="geometry" />
        </mxCell>
        <mxCell id="_NaJRBJx3cUUijE6ddpo-66" value="&lt;font style=&quot;font-size: 16px;&quot;&gt;&amp;nbsp;SubPass&lt;/font&gt;" style="rounded=0;whiteSpace=wrap;html=1;align=left;" vertex="1" parent="1">
          <mxGeometry x="373" y="782" width="190" height="50" as="geometry" />
        </mxCell>
        <mxCell id="_NaJRBJx3cUUijE6ddpo-67" value="&lt;font style=&quot;font-size: 16px;&quot;&gt;SubPass&lt;/font&gt;" style="rounded=0;whiteSpace=wrap;html=1;" vertex="1" parent="1">
          <mxGeometry x="563" y="782" width="80" height="50" as="geometry" />
        </mxCell>
        <mxCell id="_NaJRBJx3cUUijE6ddpo-68" value="&lt;font style=&quot;font-size: 16px;&quot;&gt;SubPass&lt;/font&gt;" style="rounded=0;whiteSpace=wrap;html=1;" vertex="1" parent="1">
          <mxGeometry x="643" y="782" width="80" height="50" as="geometry" />
        </mxCell>
        <mxCell id="_NaJRBJx3cUUijE6ddpo-69" value="&lt;font style=&quot;font-size: 16px;&quot;&gt;AttachmentRef&lt;/font&gt;" style="rounded=0;whiteSpace=wrap;html=1;" vertex="1" parent="1">
          <mxGeometry x="447" y="787" width="110" height="40" as="geometry" />
        </mxCell>
        <mxCell id="_NaJRBJx3cUUijE6ddpo-70" value="&lt;font style=&quot;font-size: 16px;&quot;&gt;Attachment&lt;/font&gt;" style="rounded=0;whiteSpace=wrap;html=1;" vertex="1" parent="1">
          <mxGeometry x="368" y="902" width="90" height="40" as="geometry" />
        </mxCell>
        <mxCell id="_NaJRBJx3cUUijE6ddpo-71" value="&lt;font style=&quot;font-size: 16px;&quot;&gt;Attachment&lt;/font&gt;" style="rounded=0;whiteSpace=wrap;html=1;" vertex="1" parent="1">
          <mxGeometry x="457" y="902" width="90" height="40" as="geometry" />
        </mxCell>
        <mxCell id="_NaJRBJx3cUUijE6ddpo-72" value="&lt;font style=&quot;font-size: 16px;&quot;&gt;Attachment&lt;/font&gt;" style="rounded=0;whiteSpace=wrap;html=1;" vertex="1" parent="1">
          <mxGeometry x="547" y="902" width="90" height="40" as="geometry" />
        </mxCell>
        <mxCell id="_NaJRBJx3cUUijE6ddpo-73" value="&lt;font style=&quot;font-size: 16px;&quot;&gt;Attachment&lt;/font&gt;" style="rounded=0;whiteSpace=wrap;html=1;" vertex="1" parent="1">
          <mxGeometry x="637" y="902" width="90" height="40" as="geometry" />
        </mxCell>
        <mxCell id="_NaJRBJx3cUUijE6ddpo-74" value="&lt;font style=&quot;font-size: 16px;&quot;&gt;利用多个Ref，Subpass一对多Attachment&lt;br&gt;这里AttachmentRef index对应了layout(location=x)的x&lt;/font&gt;" style="endArrow=classic;html=1;rounded=0;exitX=0.5;exitY=1;exitDx=0;exitDy=0;" edge="1" parent="1" source="_NaJRBJx3cUUijE6ddpo-69" target="_NaJRBJx3cUUijE6ddpo-71">
          <mxGeometry width="50" height="50" relative="1" as="geometry">
            <mxPoint x="563" y="832" as="sourcePoint" />
            <mxPoint x="613" y="782" as="targetPoint" />
          </mxGeometry>
        </mxCell>
        <mxCell id="_NaJRBJx3cUUijE6ddpo-75" value="&lt;font style=&quot;font-size: 16px;&quot;&gt;&lt;b&gt;SubPass Dependency&lt;/b&gt;&lt;/font&gt;" style="rounded=0;whiteSpace=wrap;html=1;" vertex="1" parent="1">
          <mxGeometry x="818" y="827" width="170" height="50" as="geometry" />
        </mxCell>
        <mxCell id="_NaJRBJx3cUUijE6ddpo-76" value="&lt;font style=&quot;color: rgb(255, 0, 0); font-size: 16px;&quot;&gt;&lt;b&gt;调节同步问题&lt;/b&gt;&lt;/font&gt;" style="endArrow=classic;html=1;rounded=0;exitX=0;exitY=0.5;exitDx=0;exitDy=0;entryX=0.5;entryY=1;entryDx=0;entryDy=0;" edge="1" parent="1" source="_NaJRBJx3cUUijE6ddpo-75" target="_NaJRBJx3cUUijE6ddpo-68">
          <mxGeometry width="50" height="50" relative="1" as="geometry">
            <mxPoint x="353" y="862" as="sourcePoint" />
            <mxPoint x="403" y="812" as="targetPoint" />
            <Array as="points">
              <mxPoint x="683" y="852" />
            </Array>
          </mxGeometry>
        </mxCell>
        <mxCell id="_NaJRBJx3cUUijE6ddpo-77" value="&lt;span style=&quot;font-size: 16px;&quot;&gt;Framebuffer1&lt;/span&gt;" style="rounded=0;whiteSpace=wrap;html=1;" vertex="1" parent="1">
          <mxGeometry x="988" y="752" width="100" height="40" as="geometry" />
        </mxCell>
        <mxCell id="_NaJRBJx3cUUijE6ddpo-78" value="&lt;span style=&quot;font-size: 16px;&quot;&gt;Framebuffer2&lt;/span&gt;" style="rounded=0;whiteSpace=wrap;html=1;" vertex="1" parent="1">
          <mxGeometry x="1088" y="752" width="100" height="40" as="geometry" />
        </mxCell>
        <mxCell id="_NaJRBJx3cUUijE6ddpo-79" value="&lt;span style=&quot;font-size: 16px;&quot;&gt;Framebuffer3&lt;/span&gt;" style="rounded=0;whiteSpace=wrap;html=1;" vertex="1" parent="1">
          <mxGeometry x="1188" y="752" width="100" height="40" as="geometry" />
        </mxCell>
        <mxCell id="_NaJRBJx3cUUijE6ddpo-80" value="&lt;b&gt;&lt;font style=&quot;font-size: 15px;&quot;&gt;一对一绑定且保证ImageView与Attachment一一对应&lt;/font&gt;&lt;/b&gt;" style="endArrow=classic;html=1;rounded=0;entryX=0.5;entryY=1;entryDx=0;entryDy=0;exitX=0.999;exitY=0.213;exitDx=0;exitDy=0;exitPerimeter=0;" edge="1" parent="1" source="_NaJRBJx3cUUijE6ddpo-55" target="_NaJRBJx3cUUijE6ddpo-78">
          <mxGeometry width="50" height="50" relative="1" as="geometry">
            <mxPoint x="760" y="820" as="sourcePoint" />
            <mxPoint x="943" y="852" as="targetPoint" />
            <Array as="points">
              <mxPoint x="1138" y="807" />
            </Array>
          </mxGeometry>
        </mxCell>
        <mxCell id="_NaJRBJx3cUUijE6ddpo-81" value="" style="endArrow=classic;html=1;rounded=0;entryX=0.5;entryY=1;entryDx=0;entryDy=0;exitX=0.5;exitY=0;exitDx=0;exitDy=0;" edge="1" parent="1" source="_NaJRBJx3cUUijE6ddpo-78" target="_NaJRBJx3cUUijE6ddpo-44">
          <mxGeometry width="50" height="50" relative="1" as="geometry">
            <mxPoint x="1123" y="752" as="sourcePoint" />
            <mxPoint x="1173" y="702" as="targetPoint" />
          </mxGeometry>
        </mxCell>
        <mxCell id="_NaJRBJx3cUUijE6ddpo-82" value="&lt;b&gt;&lt;font style=&quot;font-size: 20px;&quot;&gt;一对多&lt;/font&gt;&lt;/b&gt;" style="edgeLabel;html=1;align=center;verticalAlign=middle;resizable=0;points=[];" vertex="1" connectable="0" parent="_NaJRBJx3cUUijE6ddpo-81">
          <mxGeometry x="-0.5011" y="2" relative="1" as="geometry">
            <mxPoint as="offset" />
          </mxGeometry>
        </mxCell>
        <mxCell id="_NaJRBJx3cUUijE6ddpo-83" value="" style="endArrow=classic;html=1;rounded=0;entryX=0.5;entryY=1;entryDx=0;entryDy=0;" edge="1" parent="1" target="_NaJRBJx3cUUijE6ddpo-43">
          <mxGeometry width="50" height="50" relative="1" as="geometry">
            <mxPoint x="1138" y="672" as="sourcePoint" />
            <mxPoint x="1053" y="602" as="targetPoint" />
            <Array as="points">
              <mxPoint x="1048" y="672" />
            </Array>
          </mxGeometry>
        </mxCell>
        <mxCell id="_NaJRBJx3cUUijE6ddpo-84" value="&lt;font style=&quot;font-size: 18px;&quot;&gt;&lt;b&gt;&amp;nbsp; CommandPool&lt;/b&gt;&lt;/font&gt;" style="rounded=0;whiteSpace=wrap;html=1;align=left;" vertex="1" parent="1">
          <mxGeometry x="853" y="1002" width="440" height="60" as="geometry" />
        </mxCell>
        <mxCell id="_NaJRBJx3cUUijE6ddpo-85" value="" style="curved=1;endArrow=classic;html=1;rounded=0;entryX=0;entryY=0;entryDx=0;entryDy=0;exitX=0;exitY=1;exitDx=0;exitDy=0;" edge="1" parent="1" source="_NaJRBJx3cUUijE6ddpo-41" target="_NaJRBJx3cUUijE6ddpo-84">
          <mxGeometry width="50" height="50" relative="1" as="geometry">
            <mxPoint x="783" y="262" as="sourcePoint" />
            <mxPoint x="893" y="622" as="targetPoint" />
            <Array as="points">
              <mxPoint x="723" y="342" />
              <mxPoint x="733" y="662" />
              <mxPoint x="803" y="872" />
            </Array>
          </mxGeometry>
        </mxCell>
        <mxCell id="_NaJRBJx3cUUijE6ddpo-86" value="&lt;font style=&quot;font-size: 14px;&quot;&gt;蕴含了QueueFamilies&lt;br&gt;与CommandPool的对应&lt;br&gt;（queueFamilyIndex字段）&lt;/font&gt;" style="edgeLabel;html=1;align=center;verticalAlign=middle;resizable=0;points=[];" vertex="1" connectable="0" parent="_NaJRBJx3cUUijE6ddpo-85">
          <mxGeometry x="0.7718" y="-1" relative="1" as="geometry">
            <mxPoint x="10" y="33" as="offset" />
          </mxGeometry>
        </mxCell>
        <mxCell id="_NaJRBJx3cUUijE6ddpo-87" value="&lt;div style=&quot;&quot;&gt;&lt;b style=&quot;color: light-dark(rgb(0, 0, 255), rgb(237, 237, 237)); font-size: 18px; background-color: transparent;&quot;&gt;Logical Devices&lt;/b&gt;&lt;/div&gt;" style="rounded=0;whiteSpace=wrap;html=1;align=center;" vertex="1" parent="1">
          <mxGeometry x="923" y="902" width="80" height="60" as="geometry" />
        </mxCell>
        <mxCell id="_NaJRBJx3cUUijE6ddpo-88" value="&lt;font style=&quot;font-size: 16px;&quot;&gt;创建&lt;/font&gt;" style="endArrow=classic;html=1;rounded=0;exitX=0.5;exitY=1;exitDx=0;exitDy=0;entryX=0.25;entryY=0;entryDx=0;entryDy=0;" edge="1" parent="1" source="_NaJRBJx3cUUijE6ddpo-87" target="_NaJRBJx3cUUijE6ddpo-84">
          <mxGeometry width="50" height="50" relative="1" as="geometry">
            <mxPoint x="853" y="702" as="sourcePoint" />
            <mxPoint x="903" y="652" as="targetPoint" />
          </mxGeometry>
        </mxCell>
        <mxCell id="_NaJRBJx3cUUijE6ddpo-89" value="&lt;span style=&quot;font-size: 16px;&quot;&gt;command&lt;br&gt;buffer1&lt;/span&gt;" style="rounded=0;whiteSpace=wrap;html=1;" vertex="1" parent="1">
          <mxGeometry x="1003" y="1012" width="90" height="40" as="geometry" />
        </mxCell>
        <mxCell id="_NaJRBJx3cUUijE6ddpo-90" value="&lt;span style=&quot;font-size: 16px;&quot;&gt;command&lt;/span&gt;&lt;br style=&quot;font-size: 16px;&quot;&gt;&lt;span style=&quot;font-size: 16px;&quot;&gt;buffer2&lt;/span&gt;" style="rounded=0;whiteSpace=wrap;html=1;" vertex="1" parent="1">
          <mxGeometry x="1093" y="1012" width="90" height="40" as="geometry" />
        </mxCell>
        <mxCell id="_NaJRBJx3cUUijE6ddpo-91" value="&lt;span style=&quot;font-size: 16px;&quot;&gt;command&lt;/span&gt;&lt;br style=&quot;font-size: 16px;&quot;&gt;&lt;span style=&quot;font-size: 16px;&quot;&gt;buffer3&lt;/span&gt;" style="rounded=0;whiteSpace=wrap;html=1;" vertex="1" parent="1">
          <mxGeometry x="1183" y="1012" width="90" height="40" as="geometry" />
        </mxCell>
        <mxCell id="_NaJRBJx3cUUijE6ddpo-92" value="&lt;font style=&quot;font-size: 16px;&quot;&gt;创建&lt;/font&gt;" style="endArrow=classic;html=1;rounded=0;exitX=0.5;exitY=1;exitDx=0;exitDy=0;entryX=0.5;entryY=0;entryDx=0;entryDy=0;" edge="1" parent="1" source="_NaJRBJx3cUUijE6ddpo-87" target="_NaJRBJx3cUUijE6ddpo-89">
          <mxGeometry width="50" height="50" relative="1" as="geometry">
            <mxPoint x="823" y="852" as="sourcePoint" />
            <mxPoint x="873" y="802" as="targetPoint" />
            <Array as="points">
              <mxPoint x="1048" y="962" />
            </Array>
          </mxGeometry>
        </mxCell>
        <mxCell id="_NaJRBJx3cUUijE6ddpo-93" value="&lt;font style=&quot;font-size: 24px;&quot;&gt;&lt;b style=&quot;&quot;&gt;RecordCommandBuffer&lt;/b&gt;&lt;/font&gt;&lt;div&gt;&lt;font style=&quot;font-size: 20px;&quot;&gt;&lt;b&gt;&lt;br&gt;&lt;/b&gt;&lt;/font&gt;&lt;/div&gt;&lt;div&gt;&lt;font style=&quot;font-size: 20px;&quot;&gt;&lt;b&gt;&lt;br&gt;&lt;/b&gt;&lt;/font&gt;&lt;/div&gt;&lt;div&gt;&lt;font style=&quot;font-size: 20px;&quot;&gt;&lt;b&gt;&lt;br&gt;&lt;/b&gt;&lt;/font&gt;&lt;/div&gt;&lt;div&gt;&lt;font style=&quot;font-size: 20px;&quot;&gt;&lt;b&gt;&lt;br&gt;&lt;/b&gt;&lt;/font&gt;&lt;/div&gt;&lt;div&gt;&lt;font style=&quot;font-size: 20px;&quot;&gt;&lt;b&gt;&lt;br&gt;&lt;/b&gt;&lt;/font&gt;&lt;/div&gt;&lt;div&gt;&lt;font style=&quot;font-size: 20px;&quot;&gt;&lt;b&gt;&lt;br&gt;&lt;/b&gt;&lt;/font&gt;&lt;/div&gt;&lt;div&gt;&lt;font style=&quot;font-size: 20px;&quot;&gt;&lt;b&gt;&lt;br&gt;&lt;/b&gt;&lt;/font&gt;&lt;/div&gt;&lt;div&gt;&lt;font style=&quot;font-size: 20px;&quot;&gt;&lt;b&gt;&lt;br&gt;&lt;/b&gt;&lt;/font&gt;&lt;/div&gt;&lt;div&gt;&lt;font style=&quot;font-size: 20px;&quot;&gt;&lt;b&gt;&lt;br&gt;&lt;/b&gt;&lt;/font&gt;&lt;/div&gt;&lt;div&gt;&lt;font style=&quot;font-size: 20px;&quot;&gt;&lt;b&gt;&lt;br&gt;&lt;/b&gt;&lt;/font&gt;&lt;/div&gt;&lt;div&gt;&lt;font style=&quot;font-size: 20px;&quot;&gt;&lt;b&gt;&lt;br&gt;&lt;/b&gt;&lt;/font&gt;&lt;/div&gt;&lt;div&gt;&lt;font style=&quot;font-size: 20px;&quot;&gt;&lt;b&gt;&lt;br&gt;&lt;/b&gt;&lt;/font&gt;&lt;/div&gt;&lt;div&gt;&lt;font style=&quot;font-size: 20px;&quot;&gt;&lt;b&gt;&lt;br&gt;&lt;/b&gt;&lt;/font&gt;&lt;/div&gt;&lt;div&gt;&lt;font style=&quot;font-size: 20px;&quot;&gt;&lt;b&gt;&lt;br&gt;&lt;/b&gt;&lt;/font&gt;&lt;/div&gt;&lt;div&gt;&lt;font style=&quot;font-size: 20px;&quot;&gt;&lt;b&gt;&lt;br&gt;&lt;/b&gt;&lt;/font&gt;&lt;/div&gt;&lt;div&gt;&lt;font style=&quot;font-size: 20px;&quot;&gt;&lt;b&gt;&lt;br&gt;&lt;/b&gt;&lt;/font&gt;&lt;/div&gt;&lt;div&gt;&lt;font style=&quot;font-size: 20px;&quot;&gt;&lt;b&gt;&lt;br&gt;&lt;/b&gt;&lt;/font&gt;&lt;/div&gt;" style="rounded=0;whiteSpace=wrap;html=1;" vertex="1" parent="1">
          <mxGeometry x="1323" y="452" width="280" height="450" as="geometry" />
        </mxCell>
        <mxCell id="_NaJRBJx3cUUijE6ddpo-94" value="&lt;font style=&quot;font-size: 18px;&quot;&gt;被使用&lt;/font&gt;" style="endArrow=classic;html=1;rounded=0;exitX=1;exitY=0.5;exitDx=0;exitDy=0;entryX=0.5;entryY=1;entryDx=0;entryDy=0;" edge="1" parent="1" source="_NaJRBJx3cUUijE6ddpo-91" target="_NaJRBJx3cUUijE6ddpo-93">
          <mxGeometry width="50" height="50" relative="1" as="geometry">
            <mxPoint x="1133" y="732" as="sourcePoint" />
            <mxPoint x="1183" y="682" as="targetPoint" />
            <Array as="points">
              <mxPoint x="1463" y="1032" />
            </Array>
          </mxGeometry>
        </mxCell>
        <mxCell id="_NaJRBJx3cUUijE6ddpo-95" value="&lt;font style=&quot;font-size: 18px;&quot;&gt;执&lt;br&gt;行&lt;br&gt;顺&lt;br&gt;序&lt;/font&gt;" style="endArrow=classic;html=1;rounded=0;" edge="1" parent="1">
          <mxGeometry width="50" height="50" relative="1" as="geometry">
            <mxPoint x="1633" y="452" as="sourcePoint" />
            <mxPoint x="1633" y="902" as="targetPoint" />
          </mxGeometry>
        </mxCell>
        <mxCell id="_NaJRBJx3cUUijE6ddpo-96" value="&lt;font style=&quot;font-size: 18px;&quot;&gt;vkBeginCommandBuffer&lt;/font&gt;" style="rounded=0;whiteSpace=wrap;html=1;" vertex="1" parent="1">
          <mxGeometry x="1333" y="492" width="260" height="40" as="geometry" />
        </mxCell>
        <mxCell id="_NaJRBJx3cUUijE6ddpo-97" value="&lt;font style=&quot;font-size: 18px;&quot;&gt;vkCmdBeginRenderPass&lt;/font&gt;" style="rounded=0;whiteSpace=wrap;html=1;" vertex="1" parent="1">
          <mxGeometry x="1333" y="542" width="260" height="40" as="geometry" />
        </mxCell>
        <mxCell id="_NaJRBJx3cUUijE6ddpo-98" value="&lt;font style=&quot;font-size: 16px;&quot;&gt;引用&lt;/font&gt;" style="endArrow=classic;html=1;rounded=0;exitX=1;exitY=0.5;exitDx=0;exitDy=0;entryX=0;entryY=0.5;entryDx=0;entryDy=0;" edge="1" parent="1" source="_NaJRBJx3cUUijE6ddpo-79" target="_NaJRBJx3cUUijE6ddpo-97">
          <mxGeometry width="50" height="50" relative="1" as="geometry">
            <mxPoint x="973" y="752" as="sourcePoint" />
            <mxPoint x="1023" y="702" as="targetPoint" />
            <Array as="points">
              <mxPoint x="1293" y="562" />
            </Array>
          </mxGeometry>
        </mxCell>
        <mxCell id="_NaJRBJx3cUUijE6ddpo-99" value="&lt;font style=&quot;font-size: 16px;&quot;&gt;引用&lt;/font&gt;" style="curved=1;endArrow=classic;html=1;rounded=0;exitX=1;exitY=0;exitDx=0;exitDy=0;entryX=0;entryY=1;entryDx=0;entryDy=0;" edge="1" parent="1" source="_NaJRBJx3cUUijE6ddpo-55" target="_NaJRBJx3cUUijE6ddpo-97">
          <mxGeometry x="-0.6434" y="-1" width="50" height="50" relative="1" as="geometry">
            <mxPoint x="973" y="752" as="sourcePoint" />
            <mxPoint x="1023" y="702" as="targetPoint" />
            <Array as="points">
              <mxPoint x="1013" y="732" />
              <mxPoint x="1303" y="742" />
            </Array>
            <mxPoint as="offset" />
          </mxGeometry>
        </mxCell>
        <mxCell id="_NaJRBJx3cUUijE6ddpo-100" value="&lt;font style=&quot;font-size: 18px;&quot;&gt;vkCmdBindPipeline&lt;/font&gt;" style="rounded=0;whiteSpace=wrap;html=1;" vertex="1" parent="1">
          <mxGeometry x="1333" y="592" width="260" height="40" as="geometry" />
        </mxCell>
        <mxCell id="_NaJRBJx3cUUijE6ddpo-101" value="&lt;font style=&quot;font-size: 20px;&quot;&gt;引用&lt;/font&gt;" style="endArrow=classic;html=1;rounded=0;exitX=0;exitY=0.5;exitDx=0;exitDy=0;entryX=1;entryY=0.5;entryDx=0;entryDy=0;" edge="1" parent="1" source="_NaJRBJx3cUUijE6ddpo-50" target="_NaJRBJx3cUUijE6ddpo-100">
          <mxGeometry width="50" height="50" relative="1" as="geometry">
            <mxPoint x="993" y="752" as="sourcePoint" />
            <mxPoint x="1043" y="702" as="targetPoint" />
            <Array as="points">
              <mxPoint x="33" y="712" />
              <mxPoint x="33" y="1132" />
              <mxPoint x="1623" y="1132" />
              <mxPoint x="1623" y="612" />
            </Array>
          </mxGeometry>
        </mxCell>
        <mxCell id="_NaJRBJx3cUUijE6ddpo-102" value="&lt;font style=&quot;color: rgb(255, 0, 255); font-size: 17px;&quot;&gt;&lt;b style=&quot;&quot;&gt;vkCmdBindVertex/IndexBuffers&lt;/b&gt;&lt;/font&gt;" style="rounded=0;whiteSpace=wrap;html=1;" vertex="1" parent="1">
          <mxGeometry x="1333" y="642" width="260" height="40" as="geometry" />
        </mxCell>
        <mxCell id="_NaJRBJx3cUUijE6ddpo-103" value="&lt;span style=&quot;font-size: 18px;&quot;&gt;&lt;font style=&quot;color: rgb(255, 0, 255);&quot;&gt;&lt;b&gt;vkCmdBindDescriptorSets&lt;/b&gt;&lt;/font&gt;&lt;/span&gt;" style="rounded=0;whiteSpace=wrap;html=1;" vertex="1" parent="1">
          <mxGeometry x="1333" y="692" width="260" height="40" as="geometry" />
        </mxCell>
        <mxCell id="_NaJRBJx3cUUijE6ddpo-104" value="&lt;span style=&quot;font-size: 18px;&quot;&gt;vkCmdDraw&lt;/span&gt;" style="rounded=0;whiteSpace=wrap;html=1;" vertex="1" parent="1">
          <mxGeometry x="1333" y="742" width="260" height="40" as="geometry" />
        </mxCell>
        <mxCell id="_NaJRBJx3cUUijE6ddpo-105" value="&lt;span style=&quot;font-size: 18px;&quot;&gt;vkCmdEndRenderPass&lt;/span&gt;" style="rounded=0;whiteSpace=wrap;html=1;" vertex="1" parent="1">
          <mxGeometry x="1333" y="792" width="260" height="40" as="geometry" />
        </mxCell>
        <mxCell id="_NaJRBJx3cUUijE6ddpo-106" value="&lt;span style=&quot;font-size: 18px;&quot;&gt;vkEndCommandBuffer&lt;/span&gt;" style="rounded=0;whiteSpace=wrap;html=1;" vertex="1" parent="1">
          <mxGeometry x="1333" y="842" width="260" height="40" as="geometry" />
        </mxCell>
        <mxCell id="_NaJRBJx3cUUijE6ddpo-107" value="" style="endArrow=classic;html=1;rounded=0;exitX=1;exitY=0.5;exitDx=0;exitDy=0;entryX=0;entryY=0.25;entryDx=0;entryDy=0;" edge="1" parent="1" source="_NaJRBJx3cUUijE6ddpo-31" target="_NaJRBJx3cUUijE6ddpo-97">
          <mxGeometry width="50" height="50" relative="1" as="geometry">
            <mxPoint x="1223" y="682" as="sourcePoint" />
            <mxPoint x="1273" y="632" as="targetPoint" />
            <Array as="points">
              <mxPoint x="1283" y="552" />
            </Array>
          </mxGeometry>
        </mxCell>
        <mxCell id="_NaJRBJx3cUUijE6ddpo-108" value="&lt;font style=&quot;font-size: 14px;&quot;&gt;由DrawFrame&lt;br&gt;获取ImageIndex&lt;/font&gt;" style="edgeLabel;html=1;align=center;verticalAlign=middle;resizable=0;points=[];" vertex="1" connectable="0" parent="_NaJRBJx3cUUijE6ddpo-107">
          <mxGeometry x="-0.1429" y="1" relative="1" as="geometry">
            <mxPoint y="-19" as="offset" />
          </mxGeometry>
        </mxCell>
        <mxCell id="_NaJRBJx3cUUijE6ddpo-109" value="&lt;font style=&quot;font-size: 24px;&quot;&gt;&lt;b&gt;DrawFrame&lt;/b&gt;&lt;/font&gt;&lt;div&gt;&lt;font style=&quot;font-size: 24px;&quot;&gt;&lt;b&gt;&lt;br&gt;&lt;/b&gt;&lt;/font&gt;&lt;/div&gt;&lt;div&gt;&lt;font style=&quot;font-size: 24px;&quot;&gt;&lt;b&gt;&lt;br&gt;&lt;/b&gt;&lt;/font&gt;&lt;/div&gt;&lt;div&gt;&lt;font style=&quot;font-size: 24px;&quot;&gt;&lt;b&gt;&lt;br&gt;&lt;/b&gt;&lt;/font&gt;&lt;/div&gt;&lt;div&gt;&lt;font style=&quot;font-size: 24px;&quot;&gt;&lt;b&gt;&lt;br&gt;&lt;/b&gt;&lt;/font&gt;&lt;/div&gt;&lt;div&gt;&lt;font style=&quot;font-size: 24px;&quot;&gt;&lt;b&gt;&lt;br&gt;&lt;/b&gt;&lt;/font&gt;&lt;/div&gt;&lt;div&gt;&lt;font style=&quot;font-size: 24px;&quot;&gt;&lt;b&gt;&lt;br&gt;&lt;/b&gt;&lt;/font&gt;&lt;/div&gt;&lt;div&gt;&lt;font style=&quot;font-size: 24px;&quot;&gt;&lt;b&gt;&lt;br&gt;&lt;/b&gt;&lt;/font&gt;&lt;/div&gt;&lt;div&gt;&lt;font style=&quot;font-size: 24px;&quot;&gt;&lt;b&gt;&lt;br&gt;&lt;/b&gt;&lt;/font&gt;&lt;/div&gt;&lt;div&gt;&lt;font style=&quot;font-size: 24px;&quot;&gt;&lt;b&gt;&lt;br&gt;&lt;/b&gt;&lt;/font&gt;&lt;/div&gt;&lt;div&gt;&lt;font style=&quot;font-size: 24px;&quot;&gt;&lt;b&gt;&lt;br&gt;&lt;/b&gt;&lt;/font&gt;&lt;/div&gt;&lt;div&gt;&lt;font style=&quot;font-size: 24px;&quot;&gt;&lt;b&gt;&lt;br&gt;&lt;/b&gt;&lt;/font&gt;&lt;/div&gt;" style="rounded=0;whiteSpace=wrap;html=1;align=center;" vertex="1" parent="1">
          <mxGeometry x="1323" y="22" width="280" height="370" as="geometry" />
        </mxCell>
        <mxCell id="_NaJRBJx3cUUijE6ddpo-110" value="&lt;font style=&quot;font-size: 18px;&quot;&gt;Semaphores/GPU&lt;/font&gt;" style="rounded=0;whiteSpace=wrap;html=1;" vertex="1" parent="1">
          <mxGeometry x="1123" y="42" width="160" height="40" as="geometry" />
        </mxCell>
        <mxCell id="_NaJRBJx3cUUijE6ddpo-111" value="&lt;font style=&quot;font-size: 18px;&quot;&gt;Fences/CPU&amp;amp;GPU&lt;/font&gt;" style="rounded=0;whiteSpace=wrap;html=1;" vertex="1" parent="1">
          <mxGeometry x="1123" y="112" width="160" height="40" as="geometry" />
        </mxCell>
        <mxCell id="_NaJRBJx3cUUijE6ddpo-112" value="&lt;font style=&quot;font-size: 16px;&quot;&gt;Use&lt;/font&gt;" style="endArrow=classic;html=1;rounded=0;exitX=1;exitY=0.5;exitDx=0;exitDy=0;entryX=0;entryY=0.103;entryDx=0;entryDy=0;entryPerimeter=0;" edge="1" parent="1" source="_NaJRBJx3cUUijE6ddpo-110" target="_NaJRBJx3cUUijE6ddpo-109">
          <mxGeometry width="50" height="50" relative="1" as="geometry">
            <mxPoint x="1283" y="402" as="sourcePoint" />
            <mxPoint x="1333" y="352" as="targetPoint" />
          </mxGeometry>
        </mxCell>
        <mxCell id="_NaJRBJx3cUUijE6ddpo-113" value="&lt;font style=&quot;font-size: 16px;&quot;&gt;Use&lt;/font&gt;" style="endArrow=classic;html=1;rounded=0;exitX=1;exitY=0.5;exitDx=0;exitDy=0;entryX=0;entryY=0.103;entryDx=0;entryDy=0;entryPerimeter=0;" edge="1" parent="1">
          <mxGeometry width="50" height="50" relative="1" as="geometry">
            <mxPoint x="1283" y="132.5" as="sourcePoint" />
            <mxPoint x="1323" y="131.5" as="targetPoint" />
          </mxGeometry>
        </mxCell>
        <mxCell id="_NaJRBJx3cUUijE6ddpo-114" value="&lt;font style=&quot;font-size: 18px;&quot;&gt;执&lt;br&gt;行&lt;br&gt;顺&lt;br&gt;序&lt;/font&gt;" style="endArrow=classic;html=1;rounded=0;" edge="1" parent="1">
          <mxGeometry width="50" height="50" relative="1" as="geometry">
            <mxPoint x="1623" y="21" as="sourcePoint" />
            <mxPoint x="1623" y="390" as="targetPoint" />
          </mxGeometry>
        </mxCell>
        <mxCell id="_NaJRBJx3cUUijE6ddpo-115" value="&lt;font style=&quot;font-size: 20px;&quot;&gt;被调用&lt;/font&gt;" style="endArrow=classic;html=1;rounded=0;entryX=0.5;entryY=1;entryDx=0;entryDy=0;exitX=0.5;exitY=0;exitDx=0;exitDy=0;" edge="1" parent="1" source="_NaJRBJx3cUUijE6ddpo-93" target="_NaJRBJx3cUUijE6ddpo-109">
          <mxGeometry width="50" height="50" relative="1" as="geometry">
            <mxPoint x="1393" y="702" as="sourcePoint" />
            <mxPoint x="1443" y="652" as="targetPoint" />
          </mxGeometry>
        </mxCell>
        <mxCell id="_NaJRBJx3cUUijE6ddpo-116" value="&lt;font style=&quot;font-size: 20px;&quot;&gt;vkWaitForFences&lt;/font&gt;" style="rounded=0;whiteSpace=wrap;html=1;" vertex="1" parent="1">
          <mxGeometry x="1333" y="62" width="260" height="40" as="geometry" />
        </mxCell>
        <mxCell id="_NaJRBJx3cUUijE6ddpo-117" value="&lt;font style=&quot;font-size: 20px;&quot;&gt;vkAcquireNextImageKHR&lt;br&gt;(recreateSwapChain if nec)&lt;/font&gt;" style="rounded=0;whiteSpace=wrap;html=1;" vertex="1" parent="1">
          <mxGeometry x="1333" y="110" width="260" height="50" as="geometry" />
        </mxCell>
        <mxCell id="_NaJRBJx3cUUijE6ddpo-118" value="&lt;font style=&quot;font-size: 20px;&quot;&gt;vkResetFences&lt;/font&gt;" style="rounded=0;whiteSpace=wrap;html=1;" vertex="1" parent="1">
          <mxGeometry x="1333" y="167" width="260" height="40" as="geometry" />
        </mxCell>
        <mxCell id="_NaJRBJx3cUUijE6ddpo-119" value="&lt;font style=&quot;font-size: 18px;&quot;&gt;Reset&amp;amp;Record&lt;b&gt;CommandBuffer&lt;/b&gt;&lt;/font&gt;" style="rounded=0;whiteSpace=wrap;html=1;" vertex="1" parent="1">
          <mxGeometry x="1333" y="214" width="260" height="40" as="geometry" />
        </mxCell>
        <mxCell id="_NaJRBJx3cUUijE6ddpo-120" value="&lt;font style=&quot;font-size: 20px;&quot;&gt;vkQueueSubmit&lt;/font&gt;" style="rounded=0;whiteSpace=wrap;html=1;" vertex="1" parent="1">
          <mxGeometry x="1333" y="262" width="260" height="40" as="geometry" />
        </mxCell>
        <mxCell id="_NaJRBJx3cUUijE6ddpo-121" value="&lt;font style=&quot;font-size: 20px;&quot;&gt;vkQueuePresentKHR&lt;/font&gt;&lt;br&gt;&lt;span style=&quot;font-size: 20px;&quot;&gt;(recreateSwapChain if nec)&lt;/span&gt;" style="rounded=0;whiteSpace=wrap;html=1;" vertex="1" parent="1">
          <mxGeometry x="1333" y="312" width="260" height="60" as="geometry" />
        </mxCell>
        <mxCell id="_NaJRBJx3cUUijE6ddpo-122" style="edgeStyle=orthogonalEdgeStyle;rounded=0;orthogonalLoop=1;jettySize=auto;html=1;exitX=0.5;exitY=1;exitDx=0;exitDy=0;" edge="1" parent="1" source="_NaJRBJx3cUUijE6ddpo-93" target="_NaJRBJx3cUUijE6ddpo-93">
          <mxGeometry relative="1" as="geometry" />
        </mxCell>
        <mxCell id="_NaJRBJx3cUUijE6ddpo-123" value="&lt;font style=&quot;font-size: 16px;&quot;&gt;引用&lt;/font&gt;" style="curved=1;endArrow=classic;html=1;rounded=0;exitX=0.75;exitY=0;exitDx=0;exitDy=0;entryX=0;entryY=0.5;entryDx=0;entryDy=0;" edge="1" parent="1" source="_NaJRBJx3cUUijE6ddpo-27" target="_NaJRBJx3cUUijE6ddpo-120">
          <mxGeometry x="-0.0406" y="-17" width="50" height="50" relative="1" as="geometry">
            <mxPoint x="1113" y="312" as="sourcePoint" />
            <mxPoint x="1163" y="262" as="targetPoint" />
            <Array as="points">
              <mxPoint x="1093" y="272" />
            </Array>
            <mxPoint as="offset" />
          </mxGeometry>
        </mxCell>
        <mxCell id="_NaJRBJx3cUUijE6ddpo-124" value="" style="endArrow=classic;html=1;rounded=0;exitX=0.996;exitY=0.122;exitDx=0;exitDy=0;entryX=0;entryY=0.75;entryDx=0;entryDy=0;exitPerimeter=0;" edge="1" parent="1" source="_NaJRBJx3cUUijE6ddpo-28" target="_NaJRBJx3cUUijE6ddpo-121">
          <mxGeometry width="50" height="50" relative="1" as="geometry">
            <mxPoint x="1113" y="312" as="sourcePoint" />
            <mxPoint x="1163" y="262" as="targetPoint" />
          </mxGeometry>
        </mxCell>
        <mxCell id="_NaJRBJx3cUUijE6ddpo-125" value="&lt;font style=&quot;font-size: 16px;&quot;&gt;引用&lt;/font&gt;" style="edgeLabel;html=1;align=center;verticalAlign=middle;resizable=0;points=[];" vertex="1" connectable="0" parent="_NaJRBJx3cUUijE6ddpo-124">
          <mxGeometry x="-0.1023" relative="1" as="geometry">
            <mxPoint as="offset" />
          </mxGeometry>
        </mxCell>
        <mxCell id="_NaJRBJx3cUUijE6ddpo-126" value="&lt;span style=&quot;font-size: 20px;&quot;&gt;&lt;b&gt;&amp;nbsp; Vertex Buffer&lt;/b&gt;&lt;/span&gt;" style="rounded=0;whiteSpace=wrap;html=1;align=left;" vertex="1" parent="1">
          <mxGeometry x="296" y="1210" width="407" height="100" as="geometry" />
        </mxCell>
        <mxCell id="_NaJRBJx3cUUijE6ddpo-127" value="" style="curved=1;endArrow=classic;html=1;rounded=0;exitX=0;exitY=0;exitDx=0;exitDy=0;entryX=0.5;entryY=1;entryDx=0;entryDy=0;" edge="1" parent="1" source="_NaJRBJx3cUUijE6ddpo-128" target="_NaJRBJx3cUUijE6ddpo-58">
          <mxGeometry width="50" height="50" relative="1" as="geometry">
            <mxPoint x="140" y="1170" as="sourcePoint" />
            <mxPoint x="190" y="1120" as="targetPoint" />
            <Array as="points">
              <mxPoint x="340" y="1120" />
            </Array>
          </mxGeometry>
        </mxCell>
        <mxCell id="_NaJRBJx3cUUijE6ddpo-128" value="" style="rounded=0;whiteSpace=wrap;html=1;" vertex="1" parent="1">
          <mxGeometry x="439.5" y="1220" width="253.5" height="80" as="geometry" />
        </mxCell>
        <mxCell id="_NaJRBJx3cUUijE6ddpo-129" value="&lt;font style=&quot;font-size: 16px;&quot;&gt;Binding Description&lt;/font&gt;" style="rounded=0;whiteSpace=wrap;html=1;" vertex="1" parent="1">
          <mxGeometry x="446" y="1230" width="120" height="60" as="geometry" />
        </mxCell>
        <mxCell id="_NaJRBJx3cUUijE6ddpo-130" value="&lt;font style=&quot;font-size: 16px;&quot;&gt;Attribute Description&lt;/font&gt;" style="rounded=0;whiteSpace=wrap;html=1;" vertex="1" parent="1">
          <mxGeometry x="566" y="1230" width="120" height="60" as="geometry" />
        </mxCell>
        <mxCell id="_NaJRBJx3cUUijE6ddpo-131" value="&lt;div style=&quot;&quot;&gt;&lt;b style=&quot;color: light-dark(rgb(0, 0, 255), rgb(237, 237, 237)); font-size: 18px; background-color: transparent;&quot;&gt;Logical Devices&lt;/b&gt;&lt;/div&gt;" style="rounded=0;whiteSpace=wrap;html=1;align=center;" vertex="1" parent="1">
          <mxGeometry x="10" y="1370" width="80" height="60" as="geometry" />
        </mxCell>
        <mxCell id="_NaJRBJx3cUUijE6ddpo-132" value="&lt;b style=&quot;font-size: 20px; text-align: left;&quot;&gt;Buffers&lt;/b&gt;" style="rounded=0;whiteSpace=wrap;html=1;" vertex="1" parent="1">
          <mxGeometry x="143" y="1370" width="120" height="60" as="geometry" />
        </mxCell>
        <mxCell id="_NaJRBJx3cUUijE6ddpo-133" value="" style="endArrow=classic;html=1;rounded=0;exitX=1;exitY=0.5;exitDx=0;exitDy=0;entryX=0;entryY=0.5;entryDx=0;entryDy=0;" edge="1" parent="1" source="_NaJRBJx3cUUijE6ddpo-131" target="_NaJRBJx3cUUijE6ddpo-132">
          <mxGeometry width="50" height="50" relative="1" as="geometry">
            <mxPoint x="590" y="1190" as="sourcePoint" />
            <mxPoint x="640" y="1140" as="targetPoint" />
          </mxGeometry>
        </mxCell>
        <mxCell id="_NaJRBJx3cUUijE6ddpo-134" value="&lt;font style=&quot;font-size: 16px;&quot;&gt;创建&lt;/font&gt;" style="edgeLabel;html=1;align=center;verticalAlign=middle;resizable=0;points=[];" vertex="1" connectable="0" parent="_NaJRBJx3cUUijE6ddpo-133">
          <mxGeometry x="-0.1254" y="-1" relative="1" as="geometry">
            <mxPoint as="offset" />
          </mxGeometry>
        </mxCell>
        <mxCell id="_NaJRBJx3cUUijE6ddpo-135" value="" style="endArrow=classic;html=1;rounded=0;exitX=1;exitY=0.5;exitDx=0;exitDy=0;entryX=0;entryY=0.5;entryDx=0;entryDy=0;" edge="1" parent="1" source="_NaJRBJx3cUUijE6ddpo-132" target="_NaJRBJx3cUUijE6ddpo-126">
          <mxGeometry width="50" height="50" relative="1" as="geometry">
            <mxPoint x="590" y="1190" as="sourcePoint" />
            <mxPoint x="640" y="1140" as="targetPoint" />
            <Array as="points">
              <mxPoint x="263" y="1260" />
            </Array>
          </mxGeometry>
        </mxCell>
        <mxCell id="_NaJRBJx3cUUijE6ddpo-136" value="&lt;font style=&quot;font-size: 16px;&quot;&gt;包括&lt;/font&gt;" style="edgeLabel;html=1;align=center;verticalAlign=middle;resizable=0;points=[];" vertex="1" connectable="0" parent="_NaJRBJx3cUUijE6ddpo-135">
          <mxGeometry x="-0.0122" y="1" relative="1" as="geometry">
            <mxPoint as="offset" />
          </mxGeometry>
        </mxCell>
        <mxCell id="_NaJRBJx3cUUijE6ddpo-137" value="&lt;div style=&quot;text-align: left;&quot;&gt;&lt;span style=&quot;background-color: transparent; color: light-dark(rgb(0, 0, 0), rgb(255, 255, 255)); font-size: 20px;&quot;&gt;&lt;b&gt;&amp;nbsp;Device&lt;/b&gt;&lt;/span&gt;&lt;/div&gt;&lt;div style=&quot;text-align: left;&quot;&gt;&lt;span style=&quot;background-color: transparent; color: light-dark(rgb(0, 0, 0), rgb(255, 255, 255)); font-size: 20px;&quot;&gt;&lt;b&gt;Memory&lt;/b&gt;&lt;/span&gt;&lt;/div&gt;" style="rounded=0;whiteSpace=wrap;html=1;" vertex="1" parent="1">
          <mxGeometry x="143" y="1510" width="120" height="60" as="geometry" />
        </mxCell>
        <mxCell id="_NaJRBJx3cUUijE6ddpo-138" value="" style="endArrow=classic;html=1;rounded=0;exitX=1;exitY=0.5;exitDx=0;exitDy=0;entryX=0;entryY=0.5;entryDx=0;entryDy=0;" edge="1" parent="1" source="_NaJRBJx3cUUijE6ddpo-131" target="_NaJRBJx3cUUijE6ddpo-137">
          <mxGeometry width="50" height="50" relative="1" as="geometry">
            <mxPoint x="590" y="1190" as="sourcePoint" />
            <mxPoint x="640" y="1140" as="targetPoint" />
            <Array as="points">
              <mxPoint x="90" y="1540" />
            </Array>
          </mxGeometry>
        </mxCell>
        <mxCell id="_NaJRBJx3cUUijE6ddpo-139" value="&lt;font style=&quot;font-size: 16px;&quot;&gt;创建&lt;/font&gt;" style="edgeLabel;html=1;align=center;verticalAlign=middle;resizable=0;points=[];" vertex="1" connectable="0" parent="_NaJRBJx3cUUijE6ddpo-138">
          <mxGeometry x="0.0088" y="1" relative="1" as="geometry">
            <mxPoint as="offset" />
          </mxGeometry>
        </mxCell>
        <mxCell id="_NaJRBJx3cUUijE6ddpo-140" value="" style="endArrow=classic;html=1;rounded=0;exitX=0.5;exitY=0;exitDx=0;exitDy=0;entryX=0.5;entryY=1;entryDx=0;entryDy=0;" edge="1" parent="1" source="_NaJRBJx3cUUijE6ddpo-137" target="_NaJRBJx3cUUijE6ddpo-132">
          <mxGeometry width="50" height="50" relative="1" as="geometry">
            <mxPoint x="590" y="1190" as="sourcePoint" />
            <mxPoint x="640" y="1140" as="targetPoint" />
          </mxGeometry>
        </mxCell>
        <mxCell id="_NaJRBJx3cUUijE6ddpo-141" value="&lt;font style=&quot;font-size: 16px;&quot;&gt;绑定&lt;/font&gt;" style="edgeLabel;html=1;align=center;verticalAlign=middle;resizable=0;points=[];" vertex="1" connectable="0" parent="_NaJRBJx3cUUijE6ddpo-140">
          <mxGeometry x="-0.1544" y="3" relative="1" as="geometry">
            <mxPoint x="3" y="-6" as="offset" />
          </mxGeometry>
        </mxCell>
        <mxCell id="_NaJRBJx3cUUijE6ddpo-142" value="&lt;span style=&quot;font-size: 20px;&quot;&gt;&lt;b&gt;Index Buffer&lt;/b&gt;&lt;/span&gt;" style="rounded=0;whiteSpace=wrap;html=1;align=center;" vertex="1" parent="1">
          <mxGeometry x="296" y="1340" width="193" height="40" as="geometry" />
        </mxCell>
        <mxCell id="_NaJRBJx3cUUijE6ddpo-143" value="&lt;span style=&quot;font-size: 20px;&quot;&gt;&lt;b&gt;Staging Buffer&lt;/b&gt;&lt;/span&gt;" style="rounded=0;whiteSpace=wrap;html=1;align=center;" vertex="1" parent="1">
          <mxGeometry x="296" y="1410" width="193" height="40" as="geometry" />
        </mxCell>
        <mxCell id="_NaJRBJx3cUUijE6ddpo-144" value="&lt;span style=&quot;font-size: 20px;&quot;&gt;&lt;b&gt;Uniform Buffer&lt;/b&gt;&lt;/span&gt;" style="rounded=0;whiteSpace=wrap;html=1;align=center;" vertex="1" parent="1">
          <mxGeometry x="296" y="1480" width="193" height="40" as="geometry" />
        </mxCell>
        <mxCell id="_NaJRBJx3cUUijE6ddpo-145" value="" style="endArrow=classic;html=1;rounded=0;exitX=1;exitY=0.5;exitDx=0;exitDy=0;entryX=0;entryY=0.5;entryDx=0;entryDy=0;" edge="1" parent="1" source="_NaJRBJx3cUUijE6ddpo-132" target="_NaJRBJx3cUUijE6ddpo-142">
          <mxGeometry width="50" height="50" relative="1" as="geometry">
            <mxPoint x="280" y="1470" as="sourcePoint" />
            <mxPoint x="330" y="1420" as="targetPoint" />
            <Array as="points">
              <mxPoint x="263" y="1360" />
            </Array>
          </mxGeometry>
        </mxCell>
        <mxCell id="_NaJRBJx3cUUijE6ddpo-146" value="" style="endArrow=classic;html=1;rounded=0;exitX=1;exitY=0.5;exitDx=0;exitDy=0;entryX=0;entryY=0.5;entryDx=0;entryDy=0;" edge="1" parent="1" source="_NaJRBJx3cUUijE6ddpo-132" target="_NaJRBJx3cUUijE6ddpo-143">
          <mxGeometry width="50" height="50" relative="1" as="geometry">
            <mxPoint x="280" y="1470" as="sourcePoint" />
            <mxPoint x="330" y="1420" as="targetPoint" />
            <Array as="points">
              <mxPoint x="263" y="1430" />
            </Array>
          </mxGeometry>
        </mxCell>
        <mxCell id="_NaJRBJx3cUUijE6ddpo-147" value="" style="endArrow=classic;html=1;rounded=0;exitX=1;exitY=0.5;exitDx=0;exitDy=0;entryX=0;entryY=0.5;entryDx=0;entryDy=0;" edge="1" parent="1" source="_NaJRBJx3cUUijE6ddpo-132" target="_NaJRBJx3cUUijE6ddpo-144">
          <mxGeometry width="50" height="50" relative="1" as="geometry">
            <mxPoint x="270" y="1400" as="sourcePoint" />
            <mxPoint x="330" y="1420" as="targetPoint" />
            <Array as="points">
              <mxPoint x="263" y="1500" />
            </Array>
          </mxGeometry>
        </mxCell>
        <mxCell id="_NaJRBJx3cUUijE6ddpo-148" value="&lt;font style=&quot;font-size: 20px;&quot;&gt;&lt;b&gt;Texture Sampler&lt;/b&gt;&lt;/font&gt;" style="rounded=0;whiteSpace=wrap;html=1;" vertex="1" parent="1">
          <mxGeometry x="300" y="1670" width="194" height="40" as="geometry" />
        </mxCell>
        <mxCell id="_NaJRBJx3cUUijE6ddpo-149" value="&lt;span style=&quot;font-size: 20px;&quot;&gt;&lt;b&gt;Texture ImageView&lt;/b&gt;&lt;/span&gt;" style="rounded=0;whiteSpace=wrap;html=1;" vertex="1" parent="1">
          <mxGeometry x="300" y="1730" width="194" height="40" as="geometry" />
        </mxCell>
        <mxCell id="_NaJRBJx3cUUijE6ddpo-150" value="&lt;b style=&quot;font-size: 20px; text-align: left;&quot;&gt;&lt;font style=&quot;color: rgb(0, 204, 0);&quot;&gt;ImageView&lt;/font&gt;&lt;/b&gt;" style="rounded=0;whiteSpace=wrap;html=1;" vertex="1" parent="1">
          <mxGeometry x="120" y="1720" width="120" height="60" as="geometry" />
        </mxCell>
        <mxCell id="_NaJRBJx3cUUijE6ddpo-151" value="" style="endArrow=classic;html=1;rounded=0;exitX=1;exitY=0.5;exitDx=0;exitDy=0;entryX=0;entryY=0.5;entryDx=0;entryDy=0;" edge="1" parent="1" source="_NaJRBJx3cUUijE6ddpo-150" target="_NaJRBJx3cUUijE6ddpo-149">
          <mxGeometry width="50" height="50" relative="1" as="geometry">
            <mxPoint x="214" y="1580" as="sourcePoint" />
            <mxPoint x="264" y="1530" as="targetPoint" />
          </mxGeometry>
        </mxCell>
        <mxCell id="_NaJRBJx3cUUijE6ddpo-152" value="&lt;font style=&quot;font-size: 20px;&quot;&gt;&lt;b&gt;&amp;nbsp;Descriptor Pool&lt;/b&gt;&lt;/font&gt;" style="rounded=0;whiteSpace=wrap;html=1;align=left;" vertex="1" parent="1">
          <mxGeometry x="733.5" y="1380" width="556.5" height="100" as="geometry" />
        </mxCell>
        <mxCell id="_NaJRBJx3cUUijE6ddpo-153" value="&lt;font style=&quot;font-size: 17px;&quot;&gt;&lt;b style=&quot;&quot;&gt;DescriptorSet&lt;/b&gt;&lt;/font&gt;" style="rounded=0;whiteSpace=wrap;html=1;align=left;" vertex="1" parent="1">
          <mxGeometry x="900.5" y="1400" width="239.5" height="60" as="geometry" />
        </mxCell>
        <mxCell id="_NaJRBJx3cUUijE6ddpo-154" value="&lt;font style=&quot;font-size: 18px;&quot;&gt;Descriptor Set&lt;/font&gt;" style="rounded=0;whiteSpace=wrap;html=1;fontStyle=1" vertex="1" parent="1">
          <mxGeometry x="1133" y="1400" width="150" height="60" as="geometry" />
        </mxCell>
        <mxCell id="_NaJRBJx3cUUijE6ddpo-155" value="&lt;font style=&quot;font-size: 20px;&quot;&gt;&lt;b&gt;&amp;nbsp;Descriptor Layout&lt;/b&gt;&lt;/font&gt;" style="rounded=0;whiteSpace=wrap;html=1;align=left;" vertex="1" parent="1">
          <mxGeometry x="727" y="1210" width="497" height="100" as="geometry" />
        </mxCell>
        <mxCell id="_NaJRBJx3cUUijE6ddpo-156" value="&lt;font style=&quot;font-size: 16px;&quot;&gt;uboLayoutBinding&lt;/font&gt;" style="rounded=0;whiteSpace=wrap;html=1;" vertex="1" parent="1">
          <mxGeometry x="914.5" y="1230" width="140" height="60" as="geometry" />
        </mxCell>
        <mxCell id="_NaJRBJx3cUUijE6ddpo-157" value="&lt;font style=&quot;font-size: 15px;&quot;&gt;samplerLayoutBinding&lt;/font&gt;" style="rounded=0;whiteSpace=wrap;html=1;" vertex="1" parent="1">
          <mxGeometry x="1054.5" y="1230" width="160" height="60" as="geometry" />
        </mxCell>
        <mxCell id="_NaJRBJx3cUUijE6ddpo-158" value="" style="endArrow=classic;html=1;rounded=0;exitX=0.25;exitY=1;exitDx=0;exitDy=0;entryX=0.209;entryY=0.031;entryDx=0;entryDy=0;entryPerimeter=0;" edge="1" parent="1" source="_NaJRBJx3cUUijE6ddpo-155" target="_NaJRBJx3cUUijE6ddpo-152">
          <mxGeometry width="50" height="50" relative="1" as="geometry">
            <mxPoint x="922.5" y="1500" as="sourcePoint" />
            <mxPoint x="972.5" y="1450" as="targetPoint" />
          </mxGeometry>
        </mxCell>
        <mxCell id="_NaJRBJx3cUUijE6ddpo-159" value="&lt;font style=&quot;font-size: 16px;&quot;&gt;指导Pool分配Set&lt;/font&gt;" style="edgeLabel;html=1;align=center;verticalAlign=middle;resizable=0;points=[];" vertex="1" connectable="0" parent="_NaJRBJx3cUUijE6ddpo-158">
          <mxGeometry x="-0.2116" y="1" relative="1" as="geometry">
            <mxPoint as="offset" />
          </mxGeometry>
        </mxCell>
        <mxCell id="_NaJRBJx3cUUijE6ddpo-160" value="" style="endArrow=classic;html=1;rounded=0;exitX=1;exitY=0.5;exitDx=0;exitDy=0;entryX=0.5;entryY=1;entryDx=0;entryDy=0;" edge="1" parent="1" source="_NaJRBJx3cUUijE6ddpo-144" target="_NaJRBJx3cUUijE6ddpo-172">
          <mxGeometry width="50" height="50" relative="1" as="geometry">
            <mxPoint x="580" y="1560" as="sourcePoint" />
            <mxPoint x="630" y="1510" as="targetPoint" />
            <Array as="points">
              <mxPoint x="1047" y="1500" />
            </Array>
          </mxGeometry>
        </mxCell>
        <mxCell id="_NaJRBJx3cUUijE6ddpo-161" value="&lt;font style=&quot;font-size: 16px;&quot;&gt;对应&lt;/font&gt;" style="edgeLabel;html=1;align=center;verticalAlign=middle;resizable=0;points=[];" vertex="1" connectable="0" parent="_NaJRBJx3cUUijE6ddpo-160">
          <mxGeometry x="-0.0214" y="2" relative="1" as="geometry">
            <mxPoint x="-1" as="offset" />
          </mxGeometry>
        </mxCell>
        <mxCell id="_NaJRBJx3cUUijE6ddpo-162" value="" style="endArrow=classic;html=1;rounded=0;exitX=1;exitY=0.5;exitDx=0;exitDy=0;entryX=0.5;entryY=1;entryDx=0;entryDy=0;" edge="1" parent="1" source="_NaJRBJx3cUUijE6ddpo-148" target="_NaJRBJx3cUUijE6ddpo-171">
          <mxGeometry width="50" height="50" relative="1" as="geometry">
            <mxPoint x="640" y="1600" as="sourcePoint" />
            <mxPoint x="690" y="1550" as="targetPoint" />
            <Array as="points">
              <mxPoint x="1100" y="1690" />
            </Array>
          </mxGeometry>
        </mxCell>
        <mxCell id="_NaJRBJx3cUUijE6ddpo-163" value="" style="endArrow=classic;html=1;rounded=0;exitX=1;exitY=0.5;exitDx=0;exitDy=0;entryX=0.5;entryY=1;entryDx=0;entryDy=0;" edge="1" parent="1" source="_NaJRBJx3cUUijE6ddpo-149" target="_NaJRBJx3cUUijE6ddpo-171">
          <mxGeometry width="50" height="50" relative="1" as="geometry">
            <mxPoint x="780" y="1710" as="sourcePoint" />
            <mxPoint x="830" y="1660" as="targetPoint" />
            <Array as="points">
              <mxPoint x="1100" y="1750" />
            </Array>
          </mxGeometry>
        </mxCell>
        <mxCell id="_NaJRBJx3cUUijE6ddpo-164" value="&lt;font style=&quot;font-size: 16px;&quot;&gt;对应&lt;/font&gt;" style="edgeLabel;html=1;align=center;verticalAlign=middle;resizable=0;points=[];" vertex="1" connectable="0" parent="_NaJRBJx3cUUijE6ddpo-163">
          <mxGeometry x="0.7744" relative="1" as="geometry">
            <mxPoint as="offset" />
          </mxGeometry>
        </mxCell>
        <mxCell id="_NaJRBJx3cUUijE6ddpo-165" value="" style="curved=1;endArrow=classic;html=1;rounded=0;exitX=0;exitY=0;exitDx=0;exitDy=0;entryX=0.5;entryY=1;entryDx=0;entryDy=0;" edge="1" parent="1" source="_NaJRBJx3cUUijE6ddpo-155" target="_NaJRBJx3cUUijE6ddpo-59">
          <mxGeometry width="50" height="50" relative="1" as="geometry">
            <mxPoint x="640" y="1250" as="sourcePoint" />
            <mxPoint x="690" y="1200" as="targetPoint" />
            <Array as="points">
              <mxPoint x="650" y="1120" />
            </Array>
          </mxGeometry>
        </mxCell>
        <mxCell id="_NaJRBJx3cUUijE6ddpo-166" value="" style="endArrow=classic;html=1;rounded=0;exitX=1;exitY=0.5;exitDx=0;exitDy=0;entryX=0;entryY=0.5;entryDx=0;entryDy=0;" edge="1" parent="1" source="_NaJRBJx3cUUijE6ddpo-131" target="_NaJRBJx3cUUijE6ddpo-148">
          <mxGeometry width="50" height="50" relative="1" as="geometry">
            <mxPoint x="560" y="1670" as="sourcePoint" />
            <mxPoint x="610" y="1620" as="targetPoint" />
            <Array as="points">
              <mxPoint x="90" y="1690" />
            </Array>
          </mxGeometry>
        </mxCell>
        <mxCell id="_NaJRBJx3cUUijE6ddpo-167" value="" style="endArrow=classic;html=1;rounded=0;exitX=1;exitY=0.5;exitDx=0;exitDy=0;entryX=0;entryY=0.5;entryDx=0;entryDy=0;" edge="1" parent="1" source="_NaJRBJx3cUUijE6ddpo-131" target="_NaJRBJx3cUUijE6ddpo-150">
          <mxGeometry width="50" height="50" relative="1" as="geometry">
            <mxPoint x="230" y="1630" as="sourcePoint" />
            <mxPoint x="440" y="1920" as="targetPoint" />
            <Array as="points">
              <mxPoint x="90" y="1750" />
            </Array>
          </mxGeometry>
        </mxCell>
        <mxCell id="_NaJRBJx3cUUijE6ddpo-168" value="&lt;font style=&quot;font-size: 24px;&quot;&gt;&lt;b style=&quot;&quot;&gt;RecordCommandBuffer&lt;/b&gt;&lt;/font&gt;&lt;div&gt;&lt;font style=&quot;font-size: 20px;&quot;&gt;&lt;b&gt;&lt;br&gt;&lt;/b&gt;&lt;/font&gt;&lt;/div&gt;&lt;div&gt;&lt;br&gt;&lt;/div&gt;&lt;div&gt;&lt;br&gt;&lt;/div&gt;&lt;div&gt;&lt;br&gt;&lt;/div&gt;&lt;div&gt;&lt;br&gt;&lt;/div&gt;&lt;div&gt;&lt;br&gt;&lt;/div&gt;&lt;div&gt;&lt;br&gt;&lt;/div&gt;" style="rounded=0;whiteSpace=wrap;html=1;" vertex="1" parent="1">
          <mxGeometry x="1360" y="1255" width="280" height="160" as="geometry" />
        </mxCell>
        <mxCell id="_NaJRBJx3cUUijE6ddpo-169" value="&lt;font style=&quot;color: rgb(255, 0, 255); font-size: 17px;&quot;&gt;&lt;b style=&quot;&quot;&gt;vkCmdBindVertex/IndexBuffers&lt;/b&gt;&lt;/font&gt;" style="rounded=0;whiteSpace=wrap;html=1;" vertex="1" parent="1">
          <mxGeometry x="1370" y="1305" width="260" height="40" as="geometry" />
        </mxCell>
        <mxCell id="_NaJRBJx3cUUijE6ddpo-170" value="&lt;span style=&quot;font-size: 18px;&quot;&gt;&lt;font style=&quot;color: rgb(255, 0, 255);&quot;&gt;&lt;b&gt;vkCmdBindDescriptorSets&lt;/b&gt;&lt;/font&gt;&lt;/span&gt;" style="rounded=0;whiteSpace=wrap;html=1;" vertex="1" parent="1">
          <mxGeometry x="1370" y="1355" width="260" height="40" as="geometry" />
        </mxCell>
        <mxCell id="_NaJRBJx3cUUijE6ddpo-171" value="&lt;b&gt;Binding1&lt;/b&gt;" style="rounded=0;whiteSpace=wrap;html=1;" vertex="1" parent="1">
          <mxGeometry x="1073" y="1415" width="57" height="30" as="geometry" />
        </mxCell>
        <mxCell id="_NaJRBJx3cUUijE6ddpo-172" value="&lt;b&gt;Binding0&lt;/b&gt;" style="rounded=0;whiteSpace=wrap;html=1;" vertex="1" parent="1">
          <mxGeometry x="1020" y="1415" width="53" height="30" as="geometry" />
        </mxCell>
        <mxCell id="_NaJRBJx3cUUijE6ddpo-173" value="" style="endArrow=classic;html=1;rounded=0;exitX=1;exitY=0.5;exitDx=0;exitDy=0;entryX=0.5;entryY=1;entryDx=0;entryDy=0;" edge="1" parent="1" source="_NaJRBJx3cUUijE6ddpo-154" target="_NaJRBJx3cUUijE6ddpo-170">
          <mxGeometry width="50" height="50" relative="1" as="geometry">
            <mxPoint x="800" y="1470" as="sourcePoint" />
            <mxPoint x="850" y="1420" as="targetPoint" />
            <Array as="points">
              <mxPoint x="1500" y="1430" />
            </Array>
          </mxGeometry>
        </mxCell>
        <mxCell id="_NaJRBJx3cUUijE6ddpo-174" value="&lt;font style=&quot;font-size: 16px;&quot;&gt;引用&lt;/font&gt;" style="edgeLabel;html=1;align=center;verticalAlign=middle;resizable=0;points=[];" vertex="1" connectable="0" parent="_NaJRBJx3cUUijE6ddpo-173">
          <mxGeometry x="-0.0258" y="-4" relative="1" as="geometry">
            <mxPoint y="-4" as="offset" />
          </mxGeometry>
        </mxCell>
        <mxCell id="_NaJRBJx3cUUijE6ddpo-175" value="" style="curved=1;endArrow=classic;html=1;rounded=0;exitX=0.75;exitY=0;exitDx=0;exitDy=0;entryX=0;entryY=0.5;entryDx=0;entryDy=0;" edge="1" parent="1" source="_NaJRBJx3cUUijE6ddpo-126" target="_NaJRBJx3cUUijE6ddpo-169">
          <mxGeometry width="50" height="50" relative="1" as="geometry">
            <mxPoint x="800" y="1470" as="sourcePoint" />
            <mxPoint x="850" y="1420" as="targetPoint" />
            <Array as="points">
              <mxPoint x="1280" y="1090" />
            </Array>
          </mxGeometry>
        </mxCell>
        <mxCell id="_NaJRBJx3cUUijE6ddpo-176" value="&lt;font style=&quot;font-size: 16px;&quot;&gt;引用&lt;/font&gt;" style="edgeLabel;html=1;align=center;verticalAlign=middle;resizable=0;points=[];" vertex="1" connectable="0" parent="_NaJRBJx3cUUijE6ddpo-175">
          <mxGeometry x="-0.2718" y="-19" relative="1" as="geometry">
            <mxPoint as="offset" />
          </mxGeometry>
        </mxCell>
        <mxCell id="_NaJRBJx3cUUijE6ddpo-177" value="" style="curved=1;endArrow=classic;html=1;rounded=0;exitX=1;exitY=0.5;exitDx=0;exitDy=0;entryX=0;entryY=0.5;entryDx=0;entryDy=0;" edge="1" parent="1" source="_NaJRBJx3cUUijE6ddpo-142" target="_NaJRBJx3cUUijE6ddpo-169">
          <mxGeometry width="50" height="50" relative="1" as="geometry">
            <mxPoint x="800" y="1470" as="sourcePoint" />
            <mxPoint x="850" y="1420" as="targetPoint" />
            <Array as="points">
              <mxPoint x="750" y="1380" />
            </Array>
          </mxGeometry>
        </mxCell>
        <mxCell id="_NaJRBJx3cUUijE6ddpo-178" value="&lt;font style=&quot;font-size: 16px;&quot;&gt;引用&lt;/font&gt;" style="edgeLabel;html=1;align=center;verticalAlign=middle;resizable=0;points=[];" vertex="1" connectable="0" parent="_NaJRBJx3cUUijE6ddpo-177">
          <mxGeometry x="-0.0411" y="9" relative="1" as="geometry">
            <mxPoint as="offset" />
          </mxGeometry>
        </mxCell>
        <mxCell id="_NaJRBJx3cUUijE6ddpo-179" value="&lt;font style=&quot;font-size: 18px;&quot;&gt;Attachment是Framebuffer中的&lt;b&gt;抽象&lt;/b&gt;概念，实体是ImageView(Image)&lt;/font&gt;" style="text;html=1;align=center;verticalAlign=middle;whiteSpace=wrap;rounded=0;" vertex="1" parent="1">
          <mxGeometry x="1003" y="827" width="291.5" height="30" as="geometry" />
        </mxCell>
        <mxCell id="_NaJRBJx3cUUijE6ddpo-180" value="&lt;font style=&quot;font-size: 16px;&quot;&gt;Descriptor Pool的不同的PoolSize对应了不同种类的desc数量，而CI中的maxSets对应DescSet的最大分配数量&lt;/font&gt;" style="text;html=1;align=center;verticalAlign=middle;whiteSpace=wrap;rounded=0;" vertex="1" parent="1">
          <mxGeometry x="1133" y="1500" width="276" height="30" as="geometry" />
        </mxCell>
      </root>
    </mxGraphModel>
  </diagram>
</mxfile>
